<svg xmlns="http://www.w3.org/2000/svg" xmlns:xlink="http://www.w3.org/1999/xlink" width="23" height="23" viewBox="0 0 23 23">
  <defs>
    <clipPath id="clip-path">
      <rect id="Rectangle_1405" data-name="Rectangle 1405" width="23" height="23" transform="translate(0 -0.291)" fill="#0000f0" stroke="#0000f0" stroke-width="2"/>
    </clipPath>
  </defs>
  <g id="Group_67" data-name="Group 67" transform="translate(0 0.345)">
    <g id="Group_66" data-name="Group 66" transform="translate(0 -0.053)" clip-path="url(#clip-path)">
      <path id="Path_5344" data-name="Path 5344" d="M21.6,21.6H1.074V1.074H11.339V0H.986A.987.987,0,0,0,0,.986V21.693a.987.987,0,0,0,.986.986H21.693a.987.987,0,0,0,.986-.986V11.339H21.6Z" transform="translate(0 0.028)" fill="#0000f0" stroke="#0000f0" stroke-width="2"/>
      <path id="Path_5345" data-name="Path 5345" d="M276,0h-7.322V1.075H274.7l-9.885,9.885.76.76,9.885-9.885V7.86h1.074V0Z" transform="translate(-253.859 0.027)" fill="#0000f0" stroke="#0000f0" stroke-width="2"/>
    </g>
  </g>
</svg>
