<svg width="60" height="60" viewBox="0 0 60 60" fill="none" xmlns="http://www.w3.org/2000/svg">
<g id="2627_Artificial intelligence icon_Estonian Design Team_2562 1">
<path id="Vector" d="M30.33 38.22V14.74C30.3731 13.0555 29.7469 11.4225 28.5886 10.1987C27.4304 8.9748 25.8343 8.25973 24.15 8.21002C22.4674 8.26232 20.8739 8.97853 19.7178 10.2021C18.5617 11.4257 17.9369 13.0572 17.98 14.74C17.9883 15.3145 18.0689 15.8857 18.22 16.44" stroke="black" stroke-width="2" stroke-linecap="round" stroke-linejoin="round"/>
<path id="Vector_2" d="M16.47 40.47C16.2119 41.2541 16.0802 42.0744 16.08 42.9C16.0262 44.8425 16.746 46.7269 18.0811 48.139C19.4163 49.551 21.2575 50.375 23.2 50.43C25.1434 50.375 26.9856 49.5513 28.3223 48.1396C29.6591 46.7279 30.3811 44.8435 30.33 42.9" stroke="black" stroke-width="2" stroke-linecap="round" stroke-linejoin="round"/>
<path id="Vector_3" d="M10.82 32.04C10.1509 33.0738 9.85463 34.3049 9.97999 35.53C10.1981 37.0481 11.0086 38.4181 12.2343 39.3402C13.4599 40.2622 15.0009 40.6612 16.52 40.45" stroke="black" stroke-width="2" stroke-linecap="round" stroke-linejoin="round"/>
<path id="Vector_4" d="M18.2 16.44C16.2932 16.125 14.3393 16.5801 12.7679 17.7052C11.1965 18.8303 10.1361 20.5333 9.81999 22.44C9.618 24.3539 10.1821 26.2699 11.3889 27.7691C12.5957 29.2683 14.3471 30.2285 16.26 30.44" stroke="black" stroke-width="2" stroke-linecap="round" stroke-linejoin="round"/>
<path id="Vector_5" d="M18.21 16.44L22.08 18.63" stroke="black" stroke-width="2" stroke-linecap="round" stroke-linejoin="round"/>
<path id="Vector_6" d="M16.47 40.48L19.11 39.43" stroke="black" stroke-width="2" stroke-linecap="round" stroke-linejoin="round"/>
<path id="Vector_7" d="M19.58 37.21V42.07" stroke="black" stroke-width="2" stroke-linecap="round" stroke-linejoin="round"/>
<path id="Vector_8" d="M22.51 16.1V20.96" stroke="black" stroke-width="2" stroke-linecap="round" stroke-linejoin="round"/>
<path id="Vector_9" d="M30.07 25.79H25.2" stroke="black" stroke-width="2" stroke-linecap="round" stroke-linejoin="round"/>
<path id="Vector_10" d="M36.77 47.85C36.5395 47.7193 36.3372 47.5442 36.175 47.3347C36.0127 47.1252 35.8937 46.8856 35.8249 46.6297C35.756 46.3739 35.7387 46.1069 35.7739 45.8443C35.8091 45.5817 35.8962 45.3287 36.03 45.1C36.2952 44.6385 36.7329 44.3013 37.2467 44.1625C37.7606 44.0237 38.3085 44.0948 38.77 44.36C39.2315 44.6252 39.5687 45.0629 39.7075 45.5767C39.8462 46.0906 39.7752 46.6385 39.51 47.1" stroke="black" stroke-width="2" stroke-linecap="round" stroke-linejoin="round"/>
<path id="Vector_11" d="M40.29 37.42C40.3868 37.8021 40.3684 38.2044 40.2373 38.5762C40.1062 38.948 39.8681 39.2727 39.5529 39.5096C39.2378 39.7464 38.8597 39.8849 38.4661 39.9076C38.0726 39.9302 37.6811 39.8361 37.3408 39.6369C37.0006 39.4378 36.7268 39.1425 36.5539 38.7882C36.381 38.4339 36.3166 38.0365 36.3689 37.6457C36.4211 37.255 36.5877 36.8884 36.8477 36.592C37.1076 36.2956 37.4494 36.0827 37.83 35.98" stroke="black" stroke-width="2" stroke-linecap="round" stroke-linejoin="round"/>
<path id="Vector_12" d="M40.91 12.98C41.0106 13.3618 40.9959 13.7648 40.8679 14.1383C40.7398 14.5118 40.504 14.839 40.1903 15.0788C39.8766 15.3185 39.4989 15.46 39.1049 15.4854C38.7109 15.5109 38.3181 15.4191 37.9762 15.2217C37.6342 15.0243 37.3583 14.7301 37.1833 14.3762C37.0082 14.0223 36.9419 13.6245 36.9926 13.2329C37.0432 12.8413 37.2087 12.4735 37.468 12.1758C37.7274 11.8781 38.0691 11.6638 38.45 11.56" stroke="black" stroke-width="2" stroke-linecap="round" stroke-linejoin="round"/>
<path id="Vector_13" d="M36.6 31.26C36.2191 31.3683 35.8146 31.361 35.4377 31.2391C35.0609 31.1172 34.7288 30.8862 34.4834 30.5754C34.238 30.2645 34.0904 29.8878 34.0594 29.493C34.0283 29.0982 34.1152 28.7031 34.3089 28.3577C34.5027 28.0123 34.7946 27.7322 35.1478 27.5529C35.5009 27.3736 35.8993 27.3032 36.2925 27.3505C36.6856 27.3979 37.0559 27.561 37.3564 27.819C37.6568 28.077 37.8738 28.4185 37.98 28.8" stroke="black" stroke-width="2" stroke-linecap="round" stroke-linejoin="round"/>
<path id="Vector_14" d="M44.43 17.38C44.8123 17.2852 45.2142 17.3053 45.5851 17.438C45.956 17.5707 46.2795 17.8099 46.5149 18.1257C46.7504 18.4415 46.8873 18.8198 46.9086 19.2132C46.9299 19.6065 46.8345 19.9974 46.6345 20.3367C46.4345 20.6761 46.1387 20.9488 45.7843 21.1207C45.4298 21.2926 45.0325 21.356 44.6422 21.3029C44.2518 21.2499 43.8859 21.0827 43.5902 20.8225C43.2945 20.5622 43.0822 20.2204 42.98 19.84" stroke="black" stroke-width="2" stroke-linecap="round" stroke-linejoin="round"/>
<path id="Vector_15" d="M22.8 33.7C22.9313 33.4715 23.1064 33.2711 23.3151 33.1103C23.5239 32.9494 23.7623 32.8312 24.0167 32.7625C24.2712 32.6938 24.5366 32.6759 24.798 32.7098C25.0594 32.7437 25.3115 32.8287 25.54 32.96C25.7685 33.0913 25.9689 33.2664 26.1297 33.4751C26.2906 33.6839 26.4087 33.9223 26.4775 34.1767C26.5462 34.4312 26.5641 34.6967 26.5302 34.958C26.4963 35.2194 26.4113 35.4715 26.28 35.7C26.1485 35.9283 25.9732 36.1284 25.7641 36.2888C25.555 36.4492 25.3163 36.5667 25.0617 36.6345C24.8071 36.7023 24.5416 36.7192 24.2804 36.6841C24.0193 36.649 23.7677 36.5627 23.54 36.43" stroke="black" stroke-width="2" stroke-linecap="round" stroke-linejoin="round"/>
<path id="Vector_16" d="M19.03 23.4C19.1312 23.7822 19.1169 24.1858 18.9889 24.5598C18.8608 24.9339 18.6248 25.2616 18.3106 25.5016C17.9964 25.7415 17.6181 25.883 17.2235 25.9081C16.829 25.9331 16.4358 25.8407 16.0938 25.6425C15.7517 25.4442 15.4761 25.149 15.3017 24.7942C15.1273 24.4394 15.062 24.0408 15.1141 23.6489C15.1661 23.257 15.3331 22.8892 15.594 22.5922C15.855 22.2952 16.1981 22.0821 16.58 21.98" stroke="black" stroke-width="2" stroke-linecap="round" stroke-linejoin="round"/>
<path id="Vector_17" d="M44.79 36.36C44.4486 36.1611 44.1738 35.8655 44.0002 35.5105C43.8266 35.1555 43.762 34.7571 43.8147 34.3655C43.8673 33.9739 44.0347 33.6067 44.2959 33.3101C44.557 33.0136 44.9001 32.801 45.282 32.6993C45.6638 32.5976 46.0672 32.6112 46.4412 32.7385C46.8153 32.8659 47.1433 33.1011 47.3837 33.4146C47.6242 33.7281 47.7665 34.1059 47.7925 34.5001C47.8185 34.8944 47.7272 35.2876 47.53 35.63" stroke="black" stroke-width="2" stroke-linecap="round" stroke-linejoin="round"/>
<path id="Vector_18" d="M43.98 28.58C43.5978 28.6812 43.1942 28.6669 42.8202 28.5389C42.4461 28.4108 42.1184 28.1748 41.8784 27.8606C41.6385 27.5464 41.497 27.1681 41.4719 26.7735C41.4468 26.379 41.5393 25.9858 41.7375 25.6438C41.9358 25.3017 42.231 25.0261 42.5858 24.8517C42.9406 24.6773 43.3392 24.612 43.7311 24.6641C44.123 24.7161 44.4907 24.8831 44.7878 25.144C45.0848 25.405 45.2979 25.7481 45.4 26.13" stroke="black" stroke-width="2" stroke-linecap="round" stroke-linejoin="round"/>
<path id="Vector_19" d="M27.44 17.41H34.46L37.18 15.28" stroke="black" stroke-width="2" stroke-linecap="round" stroke-linejoin="round"/>
<path id="Vector_20" d="M30.62 28.91H34.13" stroke="black" stroke-width="2" stroke-linecap="round" stroke-linejoin="round"/>
<path id="Vector_21" d="M30.56 22.11H38.5L41.65 25.33" stroke="black" stroke-width="2" stroke-linecap="round" stroke-linejoin="round"/>
<path id="Vector_22" d="M27.79 42.6H32.71L36.05 44.62" stroke="black" stroke-width="2" stroke-linecap="round" stroke-linejoin="round"/>
<path id="Vector_23" d="M30.39 34.88H33.37L36.14 36.85" stroke="black" stroke-width="2" stroke-linecap="round" stroke-linejoin="round"/>
<path id="Vector_24" d="M43.15 42.96L45.82 40.28" stroke="black" stroke-width="2" stroke-linecap="round" stroke-linejoin="round"/>
<path id="Vector_25" d="M22.48 28.42L25.15 25.75" stroke="black" stroke-width="2" stroke-linecap="round" stroke-linejoin="round"/>
</g>
</svg>
