<svg width="60" height="60" viewBox="0 0 60 60" fill="none" xmlns="http://www.w3.org/2000/svg">
<g id="959_Data icon_Estonian Design Team_2817 1">
<g id="Layer 2">
<g id="Layer 1">
<path id="Vector" d="M13 28C12.4067 28 11.8266 27.8241 11.3333 27.4944C10.8399 27.1648 10.4554 26.6962 10.2284 26.1481C10.0013 25.5999 9.94189 24.9967 10.0576 24.4147C10.1734 23.8328 10.4591 23.2982 10.8787 22.8787C11.2982 22.4591 11.8328 22.1734 12.4147 22.0576C12.9967 21.9419 13.5999 22.0013 14.1481 22.2284C14.6962 22.4554 15.1648 22.8399 15.4944 23.3333C15.8241 23.8266 16 24.4067 16 25" stroke="black" stroke-width="2" stroke-linecap="round" stroke-linejoin="round"/>
<path id="Vector_2" d="M21 22V28" stroke="black" stroke-width="2" stroke-linecap="round" stroke-linejoin="round"/>
<path id="Vector_3" d="M29 28C28.4067 28 27.8266 27.8241 27.3333 27.4944C26.8399 27.1648 26.4554 26.6962 26.2284 26.1481C26.0013 25.5999 25.9419 24.9967 26.0576 24.4147C26.1734 23.8328 26.4591 23.2982 26.8787 22.8787C27.2982 22.4591 27.8328 22.1734 28.4147 22.0576C28.9967 21.9419 29.5999 22.0013 30.1481 22.2284C30.6962 22.4554 31.1648 22.8399 31.4944 23.3333C31.8241 23.8266 32 24.4067 32 25" stroke="black" stroke-width="2" stroke-linecap="round" stroke-linejoin="round"/>
<path id="Vector_4" d="M45 28C44.4067 28 43.8266 27.8241 43.3333 27.4944C42.8399 27.1648 42.4554 26.6962 42.2284 26.1481C42.0013 25.5999 41.9419 24.9967 42.0576 24.4147C42.1734 23.8328 42.4591 23.2982 42.8787 22.8787C43.2982 22.4591 43.8328 22.1734 44.4147 22.0576C44.9967 21.9419 45.5999 22.0013 46.148 22.2284C46.6962 22.4554 47.1648 22.8399 47.4944 23.3333C47.8241 23.8266 48 24.4067 48 25" stroke="black" stroke-width="2" stroke-linecap="round" stroke-linejoin="round"/>
<path id="Vector_5" d="M37 22V28" stroke="black" stroke-width="2" stroke-linecap="round" stroke-linejoin="round"/>
<path id="Vector_6" d="M16 32V38" stroke="black" stroke-width="2" stroke-linecap="round" stroke-linejoin="round"/>
<path id="Vector_7" d="M11 32V38" stroke="black" stroke-width="2" stroke-linecap="round" stroke-linejoin="round"/>
<path id="Vector_8" d="M32 32V38" stroke="black" stroke-width="2" stroke-linecap="round" stroke-linejoin="round"/>
<path id="Vector_9" d="M24 38C23.4067 38 22.8266 37.8241 22.3333 37.4944C21.8399 37.1648 21.4554 36.6962 21.2284 36.148C21.0013 35.5999 20.9419 34.9967 21.0576 34.4147C21.1734 33.8328 21.4591 33.2982 21.8787 32.8787C22.2982 32.4591 22.8328 32.1734 23.4147 32.0576C23.9967 31.9419 24.5999 32.0013 25.1481 32.2284C25.6962 32.4554 26.1648 32.8399 26.4944 33.3333C26.8241 33.8266 27 34.4067 27 35" stroke="black" stroke-width="2" stroke-linecap="round" stroke-linejoin="round"/>
<path id="Vector_10" d="M45 38C44.4067 38 43.8266 37.8241 43.3333 37.4944C42.8399 37.1648 42.4554 36.6962 42.2284 36.148C42.0013 35.5999 41.9419 34.9967 42.0576 34.4147C42.1734 33.8328 42.4591 33.2982 42.8787 32.8787C43.2982 32.4591 43.8328 32.1734 44.4147 32.0576C44.9967 31.9419 45.5999 32.0013 46.148 32.2284C46.6962 32.4554 47.1648 32.8399 47.4944 33.3333C47.8241 33.8266 48 34.4067 48 35" stroke="black" stroke-width="2" stroke-linecap="round" stroke-linejoin="round"/>
<path id="Vector_11" d="M37 32V38" stroke="black" stroke-width="2" stroke-linecap="round" stroke-linejoin="round"/>
<path id="Vector_12" d="M18 18C17.4067 18 16.8266 17.8241 16.3333 17.4944C15.8399 17.1648 15.4554 16.6962 15.2284 16.1481C15.0013 15.5999 14.9419 14.9967 15.0576 14.4147C15.1734 13.8328 15.4591 13.2982 15.8787 12.8787C16.2982 12.4591 16.8328 12.1734 17.4147 12.0576C17.9967 11.9419 18.5999 12.0013 19.1481 12.2284C19.6962 12.4554 20.1648 12.8399 20.4944 13.3333C20.8241 13.8266 21 14.4067 21 15" stroke="black" stroke-width="2" stroke-linecap="round" stroke-linejoin="round"/>
<path id="Vector_13" d="M26 12V18" stroke="black" stroke-width="2" stroke-linecap="round" stroke-linejoin="round"/>
<path id="Vector_14" d="M34 18C33.4067 18 32.8266 17.8241 32.3333 17.4944C31.8399 17.1648 31.4554 16.6962 31.2284 16.1481C31.0013 15.5999 30.9419 14.9967 31.0576 14.4147C31.1734 13.8328 31.4591 13.2982 31.8787 12.8787C32.2982 12.4591 32.8328 12.1734 33.4147 12.0576C33.9967 11.9419 34.5999 12.0013 35.148 12.2284C35.6962 12.4554 36.1648 12.8399 36.4944 13.3333C36.8241 13.8266 37 14.4067 37 15" stroke="black" stroke-width="2" stroke-linecap="round" stroke-linejoin="round"/>
<path id="Vector_15" d="M42 12V18" stroke="black" stroke-width="2" stroke-linecap="round" stroke-linejoin="round"/>
<path id="Vector_16" d="M39 48C38.4067 48 37.8266 47.8241 37.3333 47.4944C36.8399 47.1648 36.4554 46.6962 36.2284 46.148C36.0013 45.5999 35.9419 44.9967 36.0576 44.4147C36.1734 43.8328 36.4591 43.2982 36.8787 42.8787C37.2982 42.4591 37.8328 42.1734 38.4147 42.0576C38.9967 41.9419 39.5999 42.0013 40.148 42.2284C40.6962 42.4554 41.1648 42.8399 41.4944 43.3333C41.8241 43.8266 42 44.4067 42 45" stroke="black" stroke-width="2" stroke-linecap="round" stroke-linejoin="round"/>
<path id="Vector_17" d="M31 48V42" stroke="black" stroke-width="2" stroke-linecap="round" stroke-linejoin="round"/>
<path id="Vector_18" d="M16 48V42" stroke="black" stroke-width="2" stroke-linecap="round" stroke-linejoin="round"/>
<path id="Vector_19" d="M23 48C22.4067 48 21.8266 47.8241 21.3333 47.4944C20.8399 47.1648 20.4554 46.6962 20.2284 46.148C20.0013 45.5999 19.9419 44.9967 20.0576 44.4147C20.1734 43.8328 20.4591 43.2982 20.8787 42.8787C21.2982 42.4591 21.8328 42.1734 22.4147 42.0576C22.9967 41.9419 23.5999 42.0013 24.1481 42.2284C24.6962 42.4554 25.1648 42.8399 25.4944 43.3333C25.8241 43.8266 26 44.4067 26 45" stroke="black" stroke-width="2" stroke-linecap="round" stroke-linejoin="round"/>
</g>
</g>
</g>
</svg>
