<svg width="60" height="60" viewBox="0 0 60 60" fill="none" xmlns="http://www.w3.org/2000/svg">
<g id="1724_Nature icon_Estonian Design Team_1685 1">
<path id="Vector" d="M30.06 53.32C30.48 47.11 31.21 33 19.86 21.5" stroke="black" stroke-width="2" stroke-linecap="round" stroke-linejoin="round"/>
<path id="Vector_2" d="M31.21 32.98C33.51 29.33 32.21 24.63 30.21 21.36C27.73 17.36 23.47 14.22 11.51 12.65C14.39 15.19 14.05 21.27 13.77 25.8C13.42 31.54 18.5 41.14 28.25 36.17" stroke="black" stroke-width="2" stroke-linecap="round" stroke-linejoin="round"/>
<path id="Vector_3" d="M25.86 22.8C25.86 22.8 25.72 27.04 25.69 29.15" stroke="black" stroke-width="2" stroke-linecap="round" stroke-linejoin="round"/>
<path id="Vector_4" d="M19.41 29.92L26.66 31.64" stroke="black" stroke-width="2" stroke-linecap="round" stroke-linejoin="round"/>
<path id="Vector_5" d="M30.26 46.45C32.81 42.09 35.98 36.62 45.34 32.37" stroke="black" stroke-width="2" stroke-linecap="round" stroke-linejoin="round"/>
<path id="Vector_6" d="M38.63 41.2C43.16 43.67 46.79 39.8 47.92 36.76C49.05 33.72 50.5 29.98 52.98 29.18C45.07 26.82 41.18 27.81 38.51 29.64C36.51 31.03 33.51 34.43 35.68 38.89" stroke="black" stroke-width="2" stroke-linecap="round" stroke-linejoin="round"/>
<path id="Vector_7" d="M42.32 31.42L40.32 35.13" stroke="black" stroke-width="2" stroke-linecap="round" stroke-linejoin="round"/>
<path id="Vector_8" d="M42.8 37.22L38.58 36.42" stroke="black" stroke-width="2" stroke-linecap="round" stroke-linejoin="round"/>
<path id="Vector_9" d="M17.15 51.29H23.41" stroke="black" stroke-width="2" stroke-linecap="round" stroke-linejoin="round"/>
<path id="Vector_10" d="M21.82 47.55H26.5" stroke="black" stroke-width="2" stroke-linecap="round" stroke-linejoin="round"/>
<path id="Vector_11" d="M11.47 47.55H16.16" stroke="black" stroke-width="2" stroke-linecap="round" stroke-linejoin="round"/>
<path id="Vector_12" d="M33.91 52.09H41.75" stroke="black" stroke-width="2" stroke-linecap="round" stroke-linejoin="round"/>
<path id="Vector_13" d="M23.11 54.84H27.11" stroke="black" stroke-width="2" stroke-linecap="round" stroke-linejoin="round"/>
<path id="Vector_14" d="M36.75 47.55H47.43" stroke="black" stroke-width="2" stroke-linecap="round" stroke-linejoin="round"/>
</g>
</svg>
