<svg width="60" height="60" viewBox="0 0 60 60" fill="none" xmlns="http://www.w3.org/2000/svg">
<g id="974_E-police icon_Estonian Design Team_963 1">
<g id="Layer 2">
<g id="Layer 1">
<path id="Vector" d="M44.8077 16.7034C45.2553 22.8595 45.9356 28.2573 44.7 31.9685C41.4117 41.8445 30 47.7923 30 47.7923C30 47.7923 18.5882 41.8445 15.3 31.9684C14.0644 28.2572 14.7447 22.8595 15.1923 16.7033L30 13L40.5446 15.6372" stroke="black" stroke-width="2" stroke-linecap="round" stroke-linejoin="round"/>
<path id="Vector_2" d="M15.192 20.703L30 17L40.948 19.738" stroke="black" stroke-width="2" stroke-linecap="round" stroke-linejoin="round"/>
<path id="Vector_3" d="M35.1973 33C34.4699 34.2613 33.3086 35.2152 31.93 35.6838C30.5514 36.1525 29.0494 36.1039 27.704 35.5472C26.3585 34.9906 25.2613 33.9637 24.6168 32.658C23.9723 31.3524 23.8244 29.8569 24.2008 28.4503C24.5771 27.0437 25.452 25.8219 26.6625 25.0125C27.8729 24.2032 29.3363 23.8614 30.78 24.0511C32.2237 24.2407 33.5492 24.9487 34.5095 26.0431C35.4699 27.1376 35.9997 28.5439 36 30H24" stroke="black" stroke-width="2" stroke-linecap="round" stroke-linejoin="round"/>
</g>
</g>
</g>
</svg>
