<svg width="233" height="69" viewBox="0 0 233 69" fill="none" xmlns="http://www.w3.org/2000/svg">
<path d="M176.164 18.5374V3.29346H187.456V5.74002H179.082V9.59806H186.892V12.0446H179.082V16.185H187.362V18.6315H176.164V18.5374Z" fill="white"/>
<path d="M197.337 10.9155L202.512 18.0669V18.5374H199.501L195.643 13.0797L191.785 18.5374H188.774V18.0669L193.949 10.9155L188.774 3.85807V3.38757H191.879L195.737 8.75119L199.595 3.38757H202.7V3.85807L197.337 10.9155Z" fill="white"/>
<path d="M204.3 18.5374V3.29346H210.416C213.71 3.29346 216.156 5.26953 216.156 8.18658C216.156 10.7272 214.18 12.9856 210.416 12.9856H207.217V18.5374H204.3ZM207.217 5.64592V10.6331H209.946C211.734 10.6331 213.051 9.78626 213.051 8.09249C213.051 6.58691 211.922 5.55182 210.04 5.55182H207.217V5.64592Z" fill="white"/>
<path d="M217.38 10.9154C217.38 6.58692 220.767 3.01117 225.19 3.01117C229.707 3.01117 233 6.49282 233 10.9154C233 15.244 229.707 18.8197 225.19 18.8197C220.673 18.7256 217.38 15.244 217.38 10.9154ZM229.895 10.9154C229.895 8.09249 227.825 5.74003 225.096 5.74003C222.367 5.74003 220.391 8.09249 220.391 10.9154C220.391 13.7384 222.367 16.0909 225.096 16.0909C227.919 15.9968 229.895 13.6443 229.895 10.9154Z" fill="white"/>
<path d="M1.04707 3.29343H1.51757V2.82294C1.51757 2.16425 2.08216 1.69376 2.64675 1.69376C3.30544 1.69376 3.77593 2.25835 3.87003 2.82294V3.29343H4.43462C5.09331 3.29343 5.5638 3.85802 5.6579 4.42262C5.6579 5.08131 5.09331 5.6459 4.43462 5.6459H3.96413V6.11639C3.96413 6.77508 3.39954 7.33967 2.74085 7.33967C2.08216 7.33967 1.61167 6.77508 1.61167 6.11639V5.6459H1.14117C0.482483 5.6459 0.0119897 5.08131 0.0119897 4.42262C-0.0821088 3.85802 0.388384 3.29343 1.04707 3.29343Z" fill="white"/>
<path d="M12.5271 3.29345H13.5622V2.25836C13.5622 1.59967 14.1267 1.12918 14.6913 1.12918C15.35 1.12918 15.8205 1.69377 15.9146 2.25836V3.29345H16.9497C17.6084 3.29345 18.0789 3.85804 18.173 4.42263C18.173 5.08132 17.6084 5.64591 16.9497 5.64591H15.9146V6.681C15.9146 7.33969 15.35 7.90428 14.6913 7.90428C14.0326 7.90428 13.5622 7.33969 13.5622 6.681V5.64591H12.5271C11.8684 5.64591 11.3979 5.08132 11.3979 4.42263C11.3979 3.85804 11.8684 3.29345 12.5271 3.29345Z" fill="white"/>
<path d="M24.0072 3.29346H25.6068V1.69379C25.6068 1.0351 26.1714 0.564606 26.736 0.564606C27.3947 0.564606 27.8652 1.12919 27.9593 1.69379V3.29346H29.559C30.2177 3.29346 30.6882 3.85805 30.7823 4.42265C30.7823 5.08133 30.2177 5.64593 29.559 5.64593H27.9593V7.2456C27.9593 7.90429 27.3947 8.46888 26.736 8.46888C26.0773 8.46888 25.6068 7.90429 25.6068 7.2456V5.64593H24.0072C23.3485 5.64593 22.878 5.08133 22.878 4.42265C22.7839 3.85805 23.3485 3.29346 24.0072 3.29346Z" fill="white"/>
<path d="M35.393 3.29345H37.5573V1.12918C37.5573 0.470494 38.1219 0 38.6865 0C39.3452 0 39.8157 0.564592 39.9098 1.12918V3.29345H42.074C42.7327 3.29345 43.2032 3.85804 43.2973 4.42263C43.2973 5.08132 42.7327 5.64591 42.074 5.64591H39.9098V7.81018C39.9098 8.46887 39.3452 9.03346 38.6865 9.03346C38.0278 9.03346 37.5573 8.46887 37.5573 7.81018V5.64591H35.393C34.7343 5.64591 34.2639 5.08132 34.2639 4.42263C34.2639 3.85804 34.8284 3.29345 35.393 3.29345Z" fill="white"/>
<path d="M1.04707 18.0669H1.51757V17.5964C1.51757 16.9377 2.08216 16.4673 2.64675 16.4673C3.30544 16.4673 3.77593 17.0318 3.87003 17.5964V18.0669H4.43462C5.09331 18.0669 5.5638 18.6315 5.6579 19.1961C5.6579 19.8548 5.09331 20.4194 4.43462 20.4194H3.96413V20.8899C3.96413 21.5486 3.39954 22.1132 2.74085 22.1132C2.08216 22.1132 1.61167 21.5486 1.61167 20.8899V20.4194H1.14117C0.482483 20.4194 0.0119897 19.8548 0.0119897 19.1961C-0.0821088 18.6315 0.388384 18.0669 1.04707 18.0669Z" fill="white"/>
<path d="M12.5271 18.0669H13.5622V17.0318C13.5622 16.3731 14.1267 15.9026 14.6913 15.9026C15.35 15.9026 15.8205 16.4672 15.9146 17.0318V18.0669H16.9497C17.6084 18.0669 18.0789 18.6315 18.173 19.1961C18.173 19.8548 17.6084 20.4194 16.9497 20.4194H15.9146V21.4545C15.9146 22.1132 15.35 22.6777 14.6913 22.6777C14.0326 22.6777 13.5622 22.1132 13.5622 21.4545V20.4194H12.5271C11.8684 20.4194 11.3979 19.8548 11.3979 19.1961C11.3979 18.6315 11.8684 18.0669 12.5271 18.0669Z" fill="white"/>
<path d="M24.0072 18.0669H25.6068V16.4672C25.6068 15.8085 26.1714 15.338 26.736 15.338C27.3947 15.338 27.8652 15.9026 27.9593 16.4672V18.0669H29.559C30.2177 18.0669 30.6882 18.6315 30.7823 19.1961C30.7823 19.8548 30.2177 20.4194 29.559 20.4194H27.9593V22.019C27.9593 22.6777 27.3947 23.2423 26.736 23.2423C26.0773 23.2423 25.6068 22.6777 25.6068 22.019V20.4194H24.0072C23.3485 20.4194 22.878 19.8548 22.878 19.1961C22.7839 18.6315 23.3485 18.0669 24.0072 18.0669Z" fill="white"/>
<path d="M35.393 18.0669H37.5573V15.9027C37.5573 15.244 38.1219 14.7735 38.6865 14.7735C39.3452 14.7735 39.8157 15.3381 39.9098 15.9027V18.0669H42.074C42.7327 18.0669 43.2032 18.6315 43.2973 19.1961C43.2973 19.8548 42.7327 20.4194 42.074 20.4194H39.9098V22.5837C39.9098 23.2424 39.3452 23.807 38.6865 23.807C38.0278 23.807 37.5573 23.2424 37.5573 22.5837V20.4194H35.393C34.7343 20.4194 34.2639 19.8548 34.2639 19.1961C34.2639 18.6315 34.8284 18.0669 35.393 18.0669Z" fill="white"/>
<path d="M46.8731 18.0669H49.6019V15.3381C49.6019 14.6794 50.1665 14.2089 50.7311 14.2089C51.3898 14.2089 51.8603 14.7735 51.9544 15.3381V18.0669H54.6833C55.3419 18.0669 55.8124 18.6315 55.9065 19.1961C55.9065 19.8548 55.3419 20.4194 54.6833 20.4194H51.9544V23.1483C51.9544 23.8069 51.3898 24.3715 50.7311 24.3715C50.0724 24.3715 49.6019 23.8069 49.6019 23.1483V20.4194H46.8731C46.2144 20.4194 45.7439 19.8548 45.7439 19.1961C45.7439 18.6315 46.2144 18.0669 46.8731 18.0669Z" fill="white"/>
<path d="M1.04707 32.8404H1.51757V32.3699C1.51757 31.7112 2.08216 31.2407 2.64675 31.2407C3.30544 31.2407 3.77593 31.8053 3.87003 32.3699V32.8404H4.43462C5.09331 32.8404 5.5638 33.405 5.6579 33.9696C5.6579 34.6283 5.09331 35.1929 4.43462 35.1929H3.96413V35.6634C3.96413 36.322 3.39954 36.8866 2.74085 36.8866C2.08216 36.8866 1.61167 36.322 1.61167 35.6634V35.1929H1.14117C0.482483 35.1929 0.0119897 34.6283 0.0119897 33.9696C-0.0821088 33.405 0.388384 32.9345 1.04707 32.8404Z" fill="white"/>
<path d="M12.5271 32.8404H13.5622V31.8053C13.5622 31.1466 14.1267 30.6761 14.6913 30.6761C15.35 30.6761 15.8205 31.2407 15.9146 31.8053V32.8404H16.9497C17.6084 32.8404 18.0789 33.405 18.173 33.9696C18.173 34.6283 17.6084 35.1929 16.9497 35.1929H15.9146V36.228C15.9146 36.8867 15.35 37.4512 14.6913 37.4512C14.0326 37.4512 13.5622 36.8867 13.5622 36.228V35.1929H12.5271C11.8684 35.1929 11.3979 34.6283 11.3979 33.9696C11.3979 33.405 11.8684 32.9345 12.5271 32.8404Z" fill="white"/>
<path d="M24.0072 32.8404H25.6068V31.2407C25.6068 30.582 26.1714 30.1115 26.736 30.1115C27.3947 30.1115 27.8652 30.6761 27.9593 31.2407V32.8404H29.559C30.2177 32.8404 30.6882 33.405 30.7823 33.9696C30.7823 34.6283 30.2177 35.1929 29.559 35.1929H27.9593V36.7925C27.9593 37.4512 27.3947 38.0158 26.736 38.0158C26.0773 38.0158 25.6068 37.4512 25.6068 36.7925V35.1929H24.0072C23.3485 35.1929 22.878 34.6283 22.878 33.9696C22.7839 33.405 23.3485 32.9345 24.0072 32.8404Z" fill="white"/>
<path d="M35.393 32.8404H37.5573V30.6761C37.5573 30.0174 38.1219 29.5469 38.6865 29.5469C39.3452 29.5469 39.8157 30.1115 39.9098 30.6761V32.8404H42.074C42.7327 32.8404 43.2032 33.405 43.2973 33.9696C43.2973 34.6283 42.7327 35.1928 42.074 35.1928H39.9098V37.3571C39.9098 38.0158 39.3452 38.5804 38.6865 38.5804C38.0278 38.5804 37.5573 38.0158 37.5573 37.3571V35.1928H35.393C34.7343 35.1928 34.2639 34.6283 34.2639 33.9696C34.2639 33.405 34.8284 32.9345 35.393 32.8404Z" fill="white"/>
<path d="M46.8731 32.8404H49.6019V30.1115C49.6019 29.4528 50.1665 28.9823 50.7311 28.9823C51.3898 28.9823 51.8603 29.5469 51.9544 30.1115V32.8404H54.6833C55.3419 32.8404 55.8124 33.405 55.9065 33.9696C55.9065 34.6282 55.3419 35.1928 54.6833 35.1928H51.9544V37.9217C51.9544 38.5804 51.3898 39.145 50.7311 39.145C50.0724 39.145 49.6019 38.5804 49.6019 37.9217V35.1928H46.8731C46.2144 35.1928 45.7439 34.6282 45.7439 33.9696C45.7439 33.405 46.2144 32.9345 46.8731 32.8404Z" fill="white"/>
<path d="M1.04707 47.7079H1.51757V47.2375C1.51757 46.5788 2.08216 46.1083 2.64675 46.1083C3.30544 46.1083 3.77593 46.6729 3.87003 47.2375V47.7079H4.43462C5.09331 47.7079 5.5638 48.2725 5.6579 48.8371C5.6579 49.4958 5.09331 50.0604 4.43462 50.0604H3.96413V50.5309C3.96413 51.1896 3.39954 51.7542 2.74085 51.7542C2.08216 51.7542 1.61167 51.1896 1.61167 50.5309V50.0604H1.14117C0.482483 50.0604 0.0119897 49.4958 0.0119897 48.8371C-0.0821088 48.1784 0.388384 47.7079 1.04707 47.7079Z" fill="white"/>
<path d="M12.5271 47.708H13.5622V46.6729C13.5622 46.0142 14.1267 45.5437 14.6913 45.5437C15.35 45.5437 15.8205 46.1083 15.9146 46.6729V47.708H16.9497C17.6084 47.708 18.0789 48.2726 18.173 48.8372C18.173 49.4958 17.6084 50.0604 16.9497 50.0604H15.9146V51.0955C15.9146 51.7542 15.35 52.3188 14.6913 52.3188C14.0326 52.3188 13.5622 51.7542 13.5622 51.0955V50.0604H12.5271C11.8684 50.0604 11.3979 49.4958 11.3979 48.8372C11.3979 48.1785 11.8684 47.708 12.5271 47.708Z" fill="white"/>
<path d="M24.0072 47.708H25.6068V46.1083C25.6068 45.4496 26.1714 44.9791 26.736 44.9791C27.3947 44.9791 27.8652 45.5437 27.9593 46.1083V47.708H29.559C30.2177 47.708 30.6882 48.2725 30.7823 48.8371C30.7823 49.4958 30.2177 50.0604 29.559 50.0604H27.9593V51.6601C27.9593 52.3188 27.3947 52.8834 26.736 52.8834C26.0773 52.8834 25.6068 52.3188 25.6068 51.6601V50.0604H24.0072C23.3485 50.0604 22.878 49.4958 22.878 48.8371C22.7839 48.1784 23.3485 47.708 24.0072 47.708Z" fill="white"/>
<path d="M35.393 47.708H37.5573V45.5437C37.5573 44.885 38.1219 44.4145 38.6865 44.4145C39.3452 44.4145 39.8157 44.9791 39.9098 45.5437V47.708H42.074C42.7327 47.708 43.2032 48.2726 43.2973 48.8371C43.2973 49.4958 42.7327 50.0604 42.074 50.0604H39.9098V52.2247C39.9098 52.8834 39.3452 53.448 38.6865 53.448C38.0278 53.448 37.5573 52.8834 37.5573 52.2247V50.0604H35.393C34.7343 50.0604 34.2639 49.4958 34.2639 48.8371C34.2639 48.1785 34.8284 47.708 35.393 47.708Z" fill="white"/>
<path d="M46.8731 47.708H49.6019V44.9791C49.6019 44.3204 50.1665 43.8499 50.7311 43.8499C51.3898 43.8499 51.8603 44.4145 51.9544 44.9791V47.708H54.6833C55.3419 47.708 55.8124 48.2725 55.9065 48.8371C55.9065 49.4958 55.3419 50.0604 54.6833 50.0604H51.9544V52.7893C51.9544 53.448 51.3898 54.0126 50.7311 54.0126C50.0724 54.0126 49.6019 53.448 49.6019 52.7893V50.0604H46.8731C46.2144 50.0604 45.7439 49.4958 45.7439 48.8371C45.7439 48.1784 46.2144 47.708 46.8731 47.708Z" fill="white"/>
<path d="M1.04707 62.4814H1.51757V62.011C1.51757 61.3523 2.08216 60.8818 2.64675 60.8818C3.30544 60.8818 3.77593 61.4464 3.87003 62.011V62.4814H4.43462C5.09331 62.4814 5.5638 63.046 5.6579 63.6106C5.6579 64.2693 5.09331 64.8339 4.43462 64.8339H3.96413V65.3044C3.96413 65.9631 3.39954 66.5277 2.74085 66.5277C2.08216 66.5277 1.61167 65.9631 1.61167 65.3044V64.8339H1.14117C0.482483 64.8339 0.0119897 64.2693 0.0119897 63.6106C-0.0821088 62.9519 0.388384 62.4814 1.04707 62.4814Z" fill="white"/>
<path d="M12.5271 62.4814H13.5622V61.4463C13.5622 60.7877 14.1267 60.3172 14.6913 60.3172C15.35 60.3172 15.8205 60.8818 15.9146 61.4463V62.4814H16.9497C17.6084 62.4814 18.0789 63.046 18.173 63.6106C18.173 64.2693 17.6084 64.8339 16.9497 64.8339H15.9146V65.869C15.9146 66.5277 15.35 67.0923 14.6913 67.0923C14.0326 67.0923 13.5622 66.5277 13.5622 65.869V64.8339H12.5271C11.8684 64.8339 11.3979 64.2693 11.3979 63.6106C11.3979 62.9519 11.8684 62.4814 12.5271 62.4814Z" fill="white"/>
<path d="M24.0072 62.4814H25.6068V60.8818C25.6068 60.2231 26.1714 59.7526 26.736 59.7526C27.3947 59.7526 27.8652 60.3172 27.9593 60.8818V62.4814H29.559C30.2177 62.4814 30.6882 63.046 30.7823 63.6106C30.7823 64.2693 30.2177 64.8339 29.559 64.8339H27.9593V66.4336C27.9593 67.0923 27.3947 67.6569 26.736 67.6569C26.0773 67.6569 25.6068 67.0923 25.6068 66.4336V64.8339H24.0072C23.3485 64.8339 22.878 64.2693 22.878 63.6106C22.7839 62.9519 23.3485 62.4814 24.0072 62.4814Z" fill="white"/>
<path d="M35.393 62.4814H37.5573V60.3172C37.5573 59.6585 38.1219 59.188 38.6865 59.188C39.3452 59.188 39.8157 59.7526 39.9098 60.3172V62.4814H42.074C42.7327 62.4814 43.2032 63.046 43.2973 63.6106C43.2973 64.2693 42.7327 64.8339 42.074 64.8339H39.9098V66.9982C39.9098 67.6569 39.3452 68.2215 38.6865 68.2215C38.0278 68.2215 37.5573 67.6569 37.5573 66.9982V64.8339H35.393C34.7343 64.8339 34.2639 64.2693 34.2639 63.6106C34.2639 62.9519 34.8284 62.4814 35.393 62.4814Z" fill="white"/>
<path d="M82.2541 18.5374V5.74002H76.8905V3.29346H90.5348V5.74002H85.1712V18.5374H82.2541Z" fill="white"/>
<path d="M96.8394 17.5023H96.6512C95.8984 18.3492 94.7692 18.8197 93.6401 18.8197C91.0053 18.8197 89.3115 17.3141 89.3115 15.4321C89.3115 13.362 90.9112 12.1387 93.7342 11.7623C94.4869 11.6682 95.7102 11.48 96.463 11.3859L96.7453 11.1977C96.463 10.3508 95.6161 9.78624 94.2987 9.78624C92.9814 9.78624 91.664 10.1626 90.5348 10.9154H89.9702V8.84525C91.2876 7.90427 92.8873 7.43377 94.581 7.52787C97.4981 7.52787 99.4742 9.03345 99.4742 11.9505V18.6315H96.8394V17.5023ZM96.8394 15.0558V13.4561L93.9224 13.8325C92.7932 14.0207 92.0404 14.3971 92.0404 15.338C92.0404 16.1849 92.605 16.6554 93.9224 16.6554C95.2397 16.7495 96.7453 15.9967 96.8394 15.0558Z" fill="white"/>
<path d="M105.026 2.82297V18.5374H102.297V2.82297H105.026Z" fill="white"/>
<path d="M110.672 2.82297V18.5374H107.943V2.82297H110.672Z" fill="white"/>
<path d="M113.495 5.83413V3.01117H116.224V5.83413H113.495ZM113.495 18.5374V7.7161H116.224V18.5374H113.495Z" fill="white"/>
<path d="M126.763 12.2328C126.763 10.8213 126.01 9.97446 124.504 9.97446C123.187 9.97446 121.964 10.9154 121.87 12.1387V18.5374H119.047V7.71609H121.776V9.88036H122.152C122.528 8.46888 123.658 7.52789 125.445 7.52789C128.362 7.52789 129.586 9.03347 129.586 11.7623V18.6315H126.763V12.2328Z" fill="white"/>
<path d="M139.937 12.2328C139.937 10.8213 139.184 9.97446 137.678 9.97446C136.361 9.97446 135.138 10.9154 135.043 12.1387V18.5374H132.22V7.71609H134.949V9.88036H135.326C135.702 8.46888 136.831 7.52789 138.619 7.52789C141.536 7.52789 142.759 9.03347 142.759 11.7623V18.6315H139.937V12.2328Z" fill="white"/>
<path d="M78.2079 26.4417H83.3833C87.6177 26.4417 91.0053 29.8293 91.0053 34.0637C91.0053 38.2981 87.6177 41.6857 83.3833 41.6857H78.2079V26.4417ZM81.1249 28.8883V39.2391H83.3833C85.8299 39.2391 87.9941 36.9807 87.9941 34.0637C87.9941 31.1466 85.8299 28.8883 83.3833 28.8883H81.1249Z" fill="white"/>
<path d="M92.9814 28.9824V26.0653H95.7102V28.9824H92.9814ZM92.9814 41.6857V30.8643H95.7102V41.6857H92.9814Z" fill="white"/>
<path d="M106.343 40.5565H106.061C105.308 41.4975 104.179 41.9679 103.05 41.8738C100.133 41.8738 97.8745 39.4273 97.8745 36.2279C97.7804 33.2168 100.133 30.6761 103.144 30.4879C103.238 30.4879 103.332 30.4879 103.332 30.4879C104.838 30.4879 105.967 31.1466 106.249 32.0876H106.437V30.7702H108.978V41.2152C108.978 44.6968 106.532 46.2024 103.144 46.2024C101.544 46.2024 100.039 45.826 98.6273 45.0732V42.7207H99.1919C100.415 43.4735 101.733 43.8499 103.144 43.8499C105.026 43.8499 106.249 43.3794 106.249 41.027L106.343 40.5565ZM106.343 37.263V34.7224C106.249 33.5932 104.932 32.9345 103.709 32.9345C102.109 32.9345 100.697 34.1578 100.697 36.2279C100.603 37.9217 101.827 39.3332 103.52 39.4273C103.615 39.4273 103.709 39.4273 103.803 39.4273C105.12 39.4273 106.343 38.3922 106.343 37.263Z" fill="white"/>
<path d="M111.895 28.9824V26.0653H114.624V28.9824H111.895ZM111.895 41.6857V30.8643H114.624V41.6857H111.895Z" fill="white"/>
<path d="M120.74 30.8643H123.281V33.0286H120.74V38.1099C120.74 39.2391 121.117 39.5214 121.776 39.5214H123.281V41.6857H121.023C119.329 41.6857 118.012 40.6506 118.106 38.2981V33.0286H116.412V30.8643H118.012V27.3827H120.74V30.8643Z" fill="white"/>
<path d="M132.315 40.6506H132.126C131.374 41.4975 130.244 41.9679 129.115 41.9679C126.48 41.9679 124.787 40.4624 124.787 38.5804C124.787 36.5102 126.386 35.287 129.209 34.9106C129.962 34.8165 131.185 34.6283 131.938 34.5342L132.22 34.346C131.938 33.4991 131.091 32.9345 129.774 32.9345C128.457 32.9345 127.139 33.3109 126.01 34.0637H125.445V31.9935C126.763 31.0525 128.362 30.582 130.056 30.6761C132.973 30.6761 134.949 32.1817 134.949 35.0988V41.7797H132.315V40.6506ZM132.315 38.204V36.6043L129.398 36.9807C128.268 37.1689 127.516 37.5453 127.516 38.4863C127.516 39.3332 128.08 39.8037 129.398 39.8037C130.809 39.8037 132.22 39.0509 132.315 38.204Z" fill="white"/>
<path d="M140.501 25.9712V41.6856H137.772V25.9712H140.501Z" fill="white"/>
<path d="M77.4551 60.3172H78.0197C79.5252 61.6346 81.4072 62.2932 83.3833 62.3873C85.2653 62.3873 86.3944 61.6346 86.3944 60.5995C86.3944 59.3762 85.2653 58.9057 83.0069 58.4352C79.9957 57.8706 77.5492 56.8355 77.5492 53.8244C77.5492 51.0014 80.1839 49.2135 83.5715 49.2135C85.4535 49.1194 87.3354 49.684 88.841 50.9073V53.6362H88.3705C86.959 52.6011 85.2653 52.0365 83.4774 51.9424C81.7836 51.9424 80.5603 52.6952 80.5603 53.8244C80.5603 54.9536 81.6895 55.4241 84.2302 55.9886C87.3354 56.6473 89.4056 57.8706 89.4056 60.6936C89.4056 63.3283 86.959 65.2103 83.4774 65.2103C81.3131 65.3044 79.2429 64.5516 77.5492 63.2342L77.4551 60.3172Z" fill="white"/>
<path d="M94.1106 60.2231C94.1106 61.6346 94.8633 62.4814 96.3689 62.4814C97.6863 62.4814 99.0037 61.5404 99.0037 60.129V53.8244H101.827V64.7398H99.0978V62.5755H98.7214C98.4391 63.987 97.2158 64.928 95.4279 64.928C92.5109 64.928 91.2876 63.4224 91.2876 60.6936V53.8244H94.1106V60.2231Z" fill="white"/>
<path d="M112.177 58.3411C112.177 57.2119 111.331 56.2709 110.107 56.1768C110.013 56.1768 110.013 56.1768 109.919 56.1768C108.602 56.0827 107.473 57.1178 107.378 58.3411V64.7398H104.555V53.9185H107.284V56.0827H107.661C107.943 54.6713 109.26 53.7303 110.672 53.7303C112.554 53.7303 113.871 54.5772 114.436 55.8945H114.624C115.095 54.5772 116.694 53.7303 118.2 53.7303C120.74 53.7303 122.528 55.1418 122.528 57.8706V64.8339H119.705V58.3411C119.705 57.2119 118.858 56.1768 117.635 56.1768C117.541 56.1768 117.541 56.1768 117.447 56.1768C116.13 56.0827 115 57.1178 114.906 58.3411V64.7398H112.083V58.3411H112.177Z" fill="white"/>
<path d="M132.785 58.3411C132.785 57.2119 131.938 56.2709 130.715 56.1768C130.621 56.1768 130.621 56.1768 130.527 56.1768C129.209 56.0827 128.08 57.1178 127.986 58.3411V64.7398H125.163V53.9185H127.892V56.0827H128.268C128.551 54.6713 129.868 53.7303 131.279 53.7303C133.161 53.7303 134.479 54.5772 135.043 55.8945H135.232C135.702 54.5772 137.302 53.7303 138.807 53.7303C141.348 53.7303 143.136 55.1418 143.136 57.8706V64.8339H140.313V58.3411C140.313 57.2119 139.466 56.1768 138.243 56.1768C138.149 56.1768 138.149 56.1768 138.055 56.1768C136.737 56.0827 135.608 57.1178 135.514 58.3411V64.7398H132.691L132.785 58.3411Z" fill="white"/>
<path d="M145.959 52.1306V49.2135H148.688V52.1306H145.959ZM145.959 64.8339V53.9185H148.688V64.7398H145.959V64.8339Z" fill="white"/>
<path d="M154.804 53.9185H157.345V56.0827H154.804V61.1641C154.804 62.2932 155.181 62.5755 155.839 62.5755H157.345V64.7398H154.992C153.299 64.7398 151.981 63.7047 152.075 61.3523V56.0827H150.476V53.9185H152.075V50.4368H154.804V53.9185Z" fill="white"/>
<path d="M176.164 38.7686L182.187 32.7463C183.222 31.8053 183.881 30.9584 183.881 30.0174C183.881 28.7941 182.751 28.0414 181.34 28.0414C179.74 28.0414 178.235 28.7941 177.105 30.0174H176.541V27.3827C177.764 26.1594 179.552 25.3125 181.81 25.3125C185.01 25.3125 187.08 27.2886 187.08 29.8292C187.08 31.1466 186.515 32.2758 185.198 33.5932L180.681 38.3922H186.986V41.027H176.164V38.7686Z" fill="white"/>
<path d="M188.585 33.3109C188.585 29.0764 190.373 25.3125 194.984 25.3125C199.501 25.3125 201.383 28.9823 201.383 33.2168C201.383 37.6394 199.313 41.2152 194.984 41.2152C190.656 41.2152 188.585 37.6394 188.585 33.3109ZM198.372 33.3109C198.372 30.6761 197.619 28.2296 195.078 28.2296C192.349 28.2296 191.691 30.7702 191.691 33.3109C191.691 36.1338 192.444 38.3922 194.984 38.3922C197.713 38.3922 198.372 36.0397 198.372 33.3109Z" fill="white"/>
<path d="M202.983 38.7686L209.005 32.7463C210.04 31.8053 210.699 30.9584 210.699 30.0174C210.699 28.7941 209.569 28.0414 208.158 28.0414C206.558 28.0414 205.053 28.7941 203.924 30.0174H203.359V27.3827C204.582 26.1594 206.37 25.3125 208.628 25.3125C211.828 25.3125 213.898 27.2886 213.898 29.8292C213.898 31.1466 213.333 32.2758 212.016 33.5932L207.499 38.3922H213.804V41.027H202.983V38.7686Z" fill="white"/>
<path d="M218.979 31.6171C220.391 30.582 221.802 29.5469 223.214 28.2295H215.874V25.5948H226.695V28.4177C225.096 29.9233 223.967 30.7702 222.743 31.7112C225.002 32.0876 226.884 33.6873 226.884 36.2279C226.884 39.145 224.531 41.3092 221.144 41.3092C218.603 41.3092 216.721 40.4624 215.592 39.3332V36.5102H215.968C217.097 37.6394 218.979 38.4863 220.955 38.4863C222.743 38.4863 223.872 37.5453 223.872 36.1338C223.872 34.7223 222.837 33.9696 220.203 33.9696H218.979V31.6171Z" fill="white"/>
</svg>
