<svg xmlns="http://www.w3.org/2000/svg" width="239.745" height="48.59" viewBox="0 0 239.745 48.59">
  <g id="Artboard_1" data-name="Artboard 1" transform="translate(-26.5 -26.74)">
    <g id="Group_3" data-name="Group 3" transform="translate(151.504 28.888)">
      <path id="Path_52" data-name="Path 52" d="M331.3,43.294V32.42h8.038v1.748h-5.952v2.716h5.6V38.62h-5.6v2.923h5.936V43.29H331.3Z" transform="translate(-330.665 -32.226)" fill="#fff"/>
      <path id="Path_53" data-name="Path 53" d="M358.983,37.863l3.689,5.07V43.3h-2.16l-2.778-3.879L354.955,43.3h-2.148l-.017-.367,3.66-5.082-3.7-5.054.017-.367h2.189l2.749,3.85,2.749-3.85h2.205V32.8l-3.673,5.07Z" transform="translate(-343.273 -32.232)" fill="#fff"/>
      <path id="Path_54" data-name="Path 54" d="M379.92,43.294V32.42h4.394c2.366,0,4.1,1.439,4.1,3.5,0,1.777-1.426,3.421-4.114,3.421h-2.292V43.29H379.92Zm2.086-9.184v3.57h1.97c1.294,0,2.189-.6,2.189-1.777,0-1.088-.779-1.793-2.176-1.793Z" transform="translate(-359.244 -32.226)" fill="#fff"/>
      <path id="Path_55" data-name="Path 55" d="M402.52,37.564a5.553,5.553,0,1,1,5.552,5.614A5.517,5.517,0,0,1,402.52,37.564Zm8.978,0a3.542,3.542,0,0,0-3.454-3.689,3.483,3.483,0,0,0-3.38,3.689,3.5,3.5,0,0,0,3.38,3.673A3.567,3.567,0,0,0,411.5,37.564Z" transform="translate(-372.528 -31.95)" fill="#fff"/>
      <path id="Path_56" data-name="Path 56" d="M329.76,79.4l4.262-4.233c.721-.692,1.2-1.265,1.2-1.954,0-.882-.779-1.364-1.822-1.364a4.211,4.211,0,0,0-3.026,1.4h-.383V71.374a4.973,4.973,0,0,1,3.7-1.484c2.247,0,3.73,1.426,3.73,3.219a3.751,3.751,0,0,1-1.307,2.675l-3.2,3.364h4.468v1.838H329.76V79.4Z" transform="translate(-329.76 -54.251)" fill="#fff"/>
      <path id="Path_57" data-name="Path 57" d="M351.144,75.627c0-2.984,1.278-5.627,4.509-5.627s4.509,2.613,4.509,5.6c0,3.129-1.439,5.627-4.526,5.627s-4.5-2.543-4.5-5.6Zm6.876-.029c0-1.9-.5-3.615-2.35-3.615s-2.378,1.793-2.378,3.615c0,1.97.5,3.615,2.35,3.615S358.02,77.552,358.02,75.6Z" transform="translate(-342.327 -54.316)" fill="#fff"/>
      <path id="Path_58" data-name="Path 58" d="M375.78,79.4l4.262-4.233c.721-.692,1.2-1.265,1.2-1.954,0-.882-.779-1.364-1.822-1.364a4.212,4.212,0,0,0-3.026,1.4h-.383V71.374a4.973,4.973,0,0,1,3.7-1.484c2.247,0,3.73,1.426,3.73,3.219a3.75,3.75,0,0,1-1.307,2.675l-3.2,3.364h4.468v1.838H375.78V79.4Z" transform="translate(-356.81 -54.251)" fill="#fff"/>
      <path id="Path_59" data-name="Path 59" d="M396.6,79.4l4.262-4.233c.721-.692,1.2-1.265,1.2-1.954,0-.882-.779-1.364-1.822-1.364a4.211,4.211,0,0,0-3.026,1.4h-.383V71.374a4.973,4.973,0,0,1,3.7-1.484c2.246,0,3.73,1.426,3.73,3.219a3.75,3.75,0,0,1-1.307,2.675l-3.2,3.364h4.468v1.838H396.6V79.4Z" transform="translate(-369.048 -54.251)" fill="#fff"/>
    </g>
    <path id="Path_60" data-name="Path 60" d="M27.329,30.8h.354v-.354a.829.829,0,0,1,.829-.829.852.852,0,0,1,.849.829V30.8h.334a.852.852,0,0,1,.849.829.867.867,0,0,1-.849.849h-.334v.334a.867.867,0,0,1-.849.849.849.849,0,0,1-.829-.849v-.334h-.354a.849.849,0,0,1-.829-.849A.829.829,0,0,1,27.329,30.8Z" transform="translate(0 -1.693)" fill="#fff"/>
    <path id="Path_61" data-name="Path 61" d="M47.129,30.239h.75v-.75a.829.829,0,0,1,.829-.829.852.852,0,0,1,.849.829v.75h.73a.852.852,0,0,1,.849.829.867.867,0,0,1-.849.849h-.73v.73a.867.867,0,0,1-.849.849.849.849,0,0,1-.829-.849v-.73h-.75a.849.849,0,0,1-.829-.849A.829.829,0,0,1,47.129,30.239Z" transform="translate(-11.638 -1.129)" fill="#fff"/>
    <path id="Path_62" data-name="Path 62" d="M66.939,29.674h1.146V28.529a.829.829,0,0,1,.829-.829.852.852,0,0,1,.849.829v1.146h1.125a.852.852,0,0,1,.849.829.867.867,0,0,1-.849.849H69.762v1.125a.867.867,0,0,1-.849.849.849.849,0,0,1-.829-.849V31.352H66.939a.849.849,0,0,1-.829-.849A.829.829,0,0,1,66.939,29.674Z" transform="translate(-23.283 -0.564)" fill="#fff"/>
    <path id="Path_63" data-name="Path 63" d="M86.749,29.11H88.29V27.569a.829.829,0,0,1,.829-.829.852.852,0,0,1,.849.829V29.11h1.521a.852.852,0,0,1,.849.829.867.867,0,0,1-.849.849H89.968v1.521a.867.867,0,0,1-.849.849.849.849,0,0,1-.829-.849V30.788H86.749a.849.849,0,0,1-.829-.849A.829.829,0,0,1,86.749,29.11Z" transform="translate(-34.927)" fill="#fff"/>
    <path id="Path_64" data-name="Path 64" d="M27.329,56.383h.354v-.354a.829.829,0,0,1,.829-.829.852.852,0,0,1,.849.829v.354h.334a.852.852,0,0,1,.849.829.867.867,0,0,1-.849.849h-.334V58.4a.867.867,0,0,1-.849.849.849.849,0,0,1-.829-.849v-.338h-.354a.849.849,0,0,1-.829-.849A.829.829,0,0,1,27.329,56.383Z" transform="translate(0 -16.729)" fill="#fff"/>
    <path id="Path_65" data-name="Path 65" d="M47.129,55.819h.75v-.75a.829.829,0,0,1,.829-.829.852.852,0,0,1,.849.829v.75h.73a.852.852,0,0,1,.849.829.867.867,0,0,1-.849.849h-.73v.73a.867.867,0,0,1-.849.849.849.849,0,0,1-.829-.849V57.5h-.75a.849.849,0,0,1-.829-.849A.829.829,0,0,1,47.129,55.819Z" transform="translate(-11.638 -16.164)" fill="#fff"/>
    <path id="Path_66" data-name="Path 66" d="M66.939,55.254h1.146V54.109a.829.829,0,0,1,.829-.829.852.852,0,0,1,.849.829v1.146h1.125a.852.852,0,0,1,.849.829.867.867,0,0,1-.849.849H69.762v1.125a.867.867,0,0,1-.849.849.849.849,0,0,1-.829-.849V56.932H66.939a.849.849,0,0,1-.829-.849A.829.829,0,0,1,66.939,55.254Z" transform="translate(-23.283 -15.6)" fill="#fff"/>
    <path id="Path_67" data-name="Path 67" d="M86.749,54.69H88.29V53.149a.829.829,0,0,1,.829-.829.852.852,0,0,1,.849.829V54.69h1.521a.852.852,0,0,1,.849.829.867.867,0,0,1-.849.849H89.968v1.521a.867.867,0,0,1-.849.849.849.849,0,0,1-.829-.849V56.368H86.749a.849.849,0,0,1-.829-.849A.829.829,0,0,1,86.749,54.69Z" transform="translate(-34.927 -15.036)" fill="#fff"/>
    <path id="Path_68" data-name="Path 68" d="M106.559,54.126H108.5V52.189a.829.829,0,0,1,.829-.829.852.852,0,0,1,.849.829v1.937h1.917a.852.852,0,0,1,.849.829.867.867,0,0,1-.849.849h-1.917V57.72a.867.867,0,0,1-.849.849.849.849,0,0,1-.829-.849V55.8h-1.937a.849.849,0,0,1-.829-.849A.829.829,0,0,1,106.559,54.126Z" transform="translate(-46.571 -14.472)" fill="#fff"/>
    <path id="Path_69" data-name="Path 69" d="M27.329,81.963h.354v-.354a.829.829,0,0,1,.829-.829.852.852,0,0,1,.849.829v.354h.334a.852.852,0,0,1,.849.829.867.867,0,0,1-.849.849h-.334v.338a.867.867,0,0,1-.849.849.849.849,0,0,1-.829-.849v-.338h-.354a.849.849,0,0,1-.829-.849A.829.829,0,0,1,27.329,81.963Z" transform="translate(0 -31.765)" fill="#fff"/>
    <path id="Path_70" data-name="Path 70" d="M47.129,81.4h.75v-.75a.829.829,0,0,1,.829-.829.852.852,0,0,1,.849.829v.75h.73a.852.852,0,0,1,.849.829.867.867,0,0,1-.849.849h-.73v.73a.867.867,0,0,1-.849.849.849.849,0,0,1-.829-.849v-.73h-.75a.849.849,0,0,1-.829-.849A.829.829,0,0,1,47.129,81.4Z" transform="translate(-11.638 -31.2)" fill="#fff"/>
    <path id="Path_71" data-name="Path 71" d="M66.939,80.834h1.146V79.689a.829.829,0,0,1,.829-.829.852.852,0,0,1,.849.829v1.146h1.125a.852.852,0,0,1,.849.829.867.867,0,0,1-.849.849H69.762v1.125a.867.867,0,0,1-.849.849.849.849,0,0,1-.829-.849V82.512H66.939a.849.849,0,0,1-.829-.849A.829.829,0,0,1,66.939,80.834Z" transform="translate(-23.283 -30.636)" fill="#fff"/>
    <path id="Path_72" data-name="Path 72" d="M86.749,80.27H88.29V78.729a.829.829,0,0,1,.829-.829.852.852,0,0,1,.849.829V80.27h1.521a.852.852,0,0,1,.849.829.867.867,0,0,1-.849.849H89.968v1.521a.867.867,0,0,1-.849.849.849.849,0,0,1-.829-.849V81.948H86.749a.849.849,0,0,1-.829-.849A.829.829,0,0,1,86.749,80.27Z" transform="translate(-34.927 -30.072)" fill="#fff"/>
    <path id="Path_73" data-name="Path 73" d="M106.559,79.706H108.5V77.769a.829.829,0,0,1,.829-.829.852.852,0,0,1,.849.829v1.937h1.917a.852.852,0,0,1,.849.829.867.867,0,0,1-.849.849h-1.917V83.3a.867.867,0,0,1-.849.849.849.849,0,0,1-.829-.849V81.384h-1.937a.849.849,0,0,1-.829-.849A.829.829,0,0,1,106.559,79.706Z" transform="translate(-46.571 -29.507)" fill="#fff"/>
    <path id="Path_74" data-name="Path 74" d="M27.329,107.543h.354v-.354a.829.829,0,0,1,.829-.829.852.852,0,0,1,.849.829v.354h.334a.852.852,0,0,1,.849.829.867.867,0,0,1-.849.849h-.334v.334a.867.867,0,0,1-.849.849.849.849,0,0,1-.829-.849v-.334h-.354a.849.849,0,0,1-.829-.849A.829.829,0,0,1,27.329,107.543Z" transform="translate(0 -46.8)" fill="#fff"/>
    <path id="Path_75" data-name="Path 75" d="M47.129,106.979h.75v-.75a.829.829,0,0,1,.829-.829.852.852,0,0,1,.849.829v.75h.73a.852.852,0,0,1,.849.829.867.867,0,0,1-.849.849h-.73v.73a.867.867,0,0,1-.849.849.849.849,0,0,1-.829-.849v-.73h-.75a.849.849,0,0,1-.829-.849A.829.829,0,0,1,47.129,106.979Z" transform="translate(-11.638 -46.236)" fill="#fff"/>
    <path id="Path_76" data-name="Path 76" d="M66.939,106.414h1.146v-1.146a.829.829,0,0,1,.829-.829.852.852,0,0,1,.849.829v1.146h1.125a.852.852,0,0,1,.849.829.867.867,0,0,1-.849.849H69.762v1.125a.867.867,0,0,1-.849.849.849.849,0,0,1-.829-.849v-1.125H66.939a.849.849,0,0,1-.829-.849A.829.829,0,0,1,66.939,106.414Z" transform="translate(-23.283 -45.672)" fill="#fff"/>
    <path id="Path_77" data-name="Path 77" d="M86.749,105.85H88.29v-1.542a.829.829,0,0,1,.829-.829.852.852,0,0,1,.849.829v1.542h1.521a.852.852,0,0,1,.849.829.867.867,0,0,1-.849.849H89.968v1.521a.867.867,0,0,1-.849.849.849.849,0,0,1-.829-.849v-1.521H86.749a.849.849,0,0,1-.829-.849A.829.829,0,0,1,86.749,105.85Z" transform="translate(-34.927 -45.108)" fill="#fff"/>
    <path id="Path_78" data-name="Path 78" d="M106.559,105.286H108.5v-1.937a.829.829,0,0,1,.829-.829.852.852,0,0,1,.849.829v1.937h1.917a.852.852,0,0,1,.849.829.867.867,0,0,1-.849.849h-1.917v1.917a.867.867,0,0,1-.849.849.849.849,0,0,1-.829-.849v-1.917h-1.937a.849.849,0,0,1-.829-.849A.829.829,0,0,1,106.559,105.286Z" transform="translate(-46.571 -44.543)" fill="#fff"/>
    <path id="Path_79" data-name="Path 79" d="M27.329,133.113h.354v-.354a.829.829,0,0,1,.829-.829.852.852,0,0,1,.849.829v.354h.334a.852.852,0,0,1,.849.829.867.867,0,0,1-.849.849h-.334v.338a.867.867,0,0,1-.849.849.849.849,0,0,1-.829-.849v-.338h-.354a.849.849,0,0,1-.829-.849A.829.829,0,0,1,27.329,133.113Z" transform="translate(0 -61.83)" fill="#fff"/>
    <path id="Path_80" data-name="Path 80" d="M47.129,132.549h.75v-.75a.829.829,0,0,1,.829-.829.852.852,0,0,1,.849.829v.75h.73a.852.852,0,0,1,.849.829.867.867,0,0,1-.849.849h-.73v.73a.867.867,0,0,1-.849.849.849.849,0,0,1-.829-.849v-.73h-.75a.849.849,0,0,1-.829-.849A.829.829,0,0,1,47.129,132.549Z" transform="translate(-11.638 -61.266)" fill="#fff"/>
    <path id="Path_81" data-name="Path 81" d="M66.939,131.984h1.146v-1.146a.829.829,0,0,1,.829-.829.852.852,0,0,1,.849.829v1.146h1.125a.852.852,0,0,1,.849.829.867.867,0,0,1-.849.849H69.762v1.125a.867.867,0,0,1-.849.849.849.849,0,0,1-.829-.849v-1.125H66.939a.849.849,0,0,1-.829-.849A.829.829,0,0,1,66.939,131.984Z" transform="translate(-23.283 -60.702)" fill="#fff"/>
    <path id="Path_82" data-name="Path 82" d="M86.749,131.42H88.29v-1.542a.829.829,0,0,1,.829-.829.852.852,0,0,1,.849.829v1.542h1.521a.852.852,0,0,1,.849.829.867.867,0,0,1-.849.849H89.968v1.521a.867.867,0,0,1-.849.849.849.849,0,0,1-.829-.849V133.1H86.749a.849.849,0,0,1-.829-.849A.829.829,0,0,1,86.749,131.42Z" transform="translate(-34.927 -60.138)" fill="#fff"/>
    <path id="Path_83" data-name="Path 83" d="M163.521,43.374V34.248H159.7V32.5h9.732v1.748h-3.821v9.126h-2.086Z" transform="translate(-78.295 -3.386)" fill="#fff"/>
    <path id="Path_84" data-name="Path 84" d="M186.453,46.843h-.132a2.75,2.75,0,0,1-2.115.927c-1.913,0-3.116-1.043-3.116-2.424,0-1.484,1.117-2.354,3.145-2.646.544-.074,1.41-.19,1.925-.251l.206-.148a1.7,1.7,0,0,0-1.748-1.014,4.746,4.746,0,0,0-2.675.8h-.383V40.627a5.689,5.689,0,0,1,3.277-.969c2.073,0,3.483,1.043,3.483,3.133v4.79h-1.867v-.734Zm0-1.764V43.946l-2.1.264c-.808.148-1.369.425-1.369,1.088,0,.573.425.956,1.34.956C185.352,46.254,186.4,45.726,186.453,45.079Z" transform="translate(-90.868 -7.593)" fill="#fff"/>
    <path id="Path_85" data-name="Path 85" d="M205.451,31.74V42.927H203.51V31.74Z" transform="translate(-104.046 -2.939)" fill="#fff"/>
    <path id="Path_86" data-name="Path 86" d="M215.221,31.74V42.927H213.28V31.74Z" transform="translate(-109.789 -2.939)" fill="#fff"/>
    <path id="Path_87" data-name="Path 87" d="M222.98,33.977V31.92h1.954v2.057Zm0,9.056V35.288h1.954v7.745Z" transform="translate(-115.491 -3.045)" fill="#fff"/>
    <path id="Path_88" data-name="Path 88" d="M238.046,43.127a1.459,1.459,0,0,0-1.6-1.632,1.805,1.805,0,0,0-1.867,1.575v4.555H232.56V39.878h1.954v1.513h.264a2.213,2.213,0,0,1,2.337-1.661c2.073,0,2.939,1.059,2.939,3.03v4.864h-2.016v-4.5Z" transform="translate(-121.122 -7.635)" fill="#fff"/>
    <path id="Path_89" data-name="Path 89" d="M260.786,43.127a1.459,1.459,0,0,0-1.6-1.632,1.805,1.805,0,0,0-1.867,1.575v4.555H255.3V39.878h1.954v1.513h.264a2.213,2.213,0,0,1,2.337-1.661c2.073,0,2.939,1.059,2.939,3.03v4.864h-2.016v-4.5Z" transform="translate(-134.488 -7.635)" fill="#fff"/>
    <path id="Path_90" data-name="Path 90" d="M161.9,72.49h3.673a5.439,5.439,0,1,1,0,10.878H161.9V72.49Zm2.086,1.748v7.378h1.616a3.715,3.715,0,0,0,0-7.378Z" transform="translate(-79.588 -26.892)" fill="#fff"/>
    <path id="Path_91" data-name="Path 91" d="M187.54,73.977V71.92h1.954v2.057Zm0,9.056V75.288h1.954v7.745Z" transform="translate(-94.659 -26.557)" fill="#fff"/>
    <path id="Path_92" data-name="Path 92" d="M201.989,86.739h-.177a2.583,2.583,0,0,1-2.176.94,3.79,3.79,0,0,1-3.689-4.011,3.922,3.922,0,0,1,3.776-4.068h.161a2.1,2.1,0,0,1,2.1,1.146h.12v-.94h1.805v7.436c0,2.469-1.735,3.541-4.159,3.541a6.842,6.842,0,0,1-3.219-.808V88.314h.425a5.824,5.824,0,0,0,2.824.824c1.368,0,2.205-.354,2.205-2.028v-.367Zm0-2.366V82.58c-.045-.824-.985-1.294-1.913-1.294a2.194,2.194,0,0,0-2.176,2.366,2.143,2.143,0,0,0,1.991,2.288c.058,0,.111,0,.169,0a1.876,1.876,0,0,0,1.925-1.575Z" transform="translate(-99.598 -31.071)" fill="#fff"/>
    <path id="Path_93" data-name="Path 93" d="M220.13,73.977V71.92h1.954v2.057Zm0,9.056V75.288h1.954v7.745Z" transform="translate(-113.815 -26.557)" fill="#fff"/>
    <path id="Path_94" data-name="Path 94" d="M231.005,76.536H232.8V78.11h-1.793l-.016,3.632c0,.824.28,1,.721,1h1.043v1.542h-1.6c-1.191,0-2.115-.7-2.1-2.395V78.11H227.93V76.536h1.117l.016-2.486h1.954L231,76.536Z" transform="translate(-118.4 -27.809)" fill="#fff"/>
    <path id="Path_95" data-name="Path 95" d="M247.853,86.838h-.132a2.75,2.75,0,0,1-2.115.927c-1.913,0-3.116-1.043-3.116-2.424,0-1.484,1.117-2.354,3.145-2.646.544-.074,1.41-.19,1.925-.251l.206-.148a1.7,1.7,0,0,0-1.748-1.014,4.774,4.774,0,0,0-2.675.791h-.383V80.617a5.689,5.689,0,0,1,3.277-.969c2.073,0,3.483,1.043,3.483,3.133v4.79h-1.867v-.734Zm0-1.764V83.94l-2.1.264c-.808.148-1.369.425-1.369,1.088,0,.573.425.956,1.34.956C246.752,86.248,247.8,85.72,247.853,85.073Z" transform="translate(-126.958 -31.099)" fill="#fff"/>
    <path id="Path_96" data-name="Path 96" d="M266.841,71.74V82.927H264.9V71.74Z" transform="translate(-140.131 -26.451)" fill="#fff"/>
    <path id="Path_97" data-name="Path 97" d="M160.62,119.784h.412a6.344,6.344,0,0,0,3.809,1.5c1.323,0,2.115-.528,2.115-1.265,0-.9-.824-1.22-2.424-1.558-2.176-.425-3.912-1.117-3.912-3.293,0-2.028,1.9-3.293,4.308-3.293a5.8,5.8,0,0,1,3.747,1.175v1.925h-.354a5.826,5.826,0,0,0-3.5-1.175c-1.22,0-2.086.528-2.086,1.307,0,.837.824,1.162,2.646,1.513,2.189.441,3.689,1.34,3.689,3.351,0,1.9-1.719,3.248-4.233,3.248a6.162,6.162,0,0,1-4.217-1.426v-2.016Z" transform="translate(-78.835 -50.039)" fill="#fff"/>
    <path id="Path_98" data-name="Path 98" d="M186.6,124.564a1.456,1.456,0,0,0,1.616,1.616,1.8,1.8,0,0,0,1.867-1.645V120.05H192.1v7.762h-1.954V126.3h-.28a2.173,2.173,0,0,1-2.321,1.645c-2.073,0-2.955-1.043-2.955-3.013v-4.88h2.016v4.514Z" transform="translate(-92.925 -54.847)" fill="#fff"/>
    <path id="Path_99" data-name="Path 99" d="M212.912,123.016a1.491,1.491,0,0,0-1.447-1.533h-.14a1.75,1.75,0,0,0-1.81,1.575v4.555H207.5v-7.745h1.954v1.513h.264a2.134,2.134,0,0,1,2.16-1.661,2.686,2.686,0,0,1,2.659,1.558h.148a2.7,2.7,0,0,1,2.56-1.558,2.78,2.78,0,0,1,3.1,2.927v4.967h-2.016v-4.6a1.5,1.5,0,0,0-1.455-1.533h-.148a1.7,1.7,0,0,0-1.81,1.575v4.555H212.9v-4.6Z" transform="translate(-106.391 -54.651)" fill="#fff"/>
    <path id="Path_100" data-name="Path 100" d="M248.632,123.016a1.491,1.491,0,0,0-1.447-1.533h-.14a1.75,1.75,0,0,0-1.81,1.575v4.555H243.22v-7.745h1.954v1.513h.264a2.134,2.134,0,0,1,2.16-1.661,2.686,2.686,0,0,1,2.659,1.558h.148a2.7,2.7,0,0,1,2.56-1.558,2.78,2.78,0,0,1,3.1,2.927v4.967h-2.016v-4.6a1.5,1.5,0,0,0-1.455-1.533h-.148a1.7,1.7,0,0,0-1.81,1.575v4.555h-2.012v-4.6Z" transform="translate(-127.388 -54.651)" fill="#fff"/>
    <path id="Path_101" data-name="Path 101" d="M279.06,113.977V111.92h1.954v2.057Zm0,9.056v-7.745h1.954v7.745Z" transform="translate(-148.454 -50.069)" fill="#fff"/>
    <path id="Path_102" data-name="Path 102" d="M289.935,116.536h1.793v1.575h-1.793l-.017,3.631c0,.824.28,1,.721,1h1.043v1.542h-1.6c-1.191,0-2.115-.7-2.1-2.395V118.11H286.86v-1.575h1.117l.017-2.486h1.954l-.016,2.486Z" transform="translate(-153.039 -51.321)" fill="#fff"/>
    <g id="Group_4" data-name="Group 4" transform="translate(208.194 29.221)">
      <path id="Path_103" data-name="Path 103" d="M470.245,35.606l-2.58,1.4h-.305V35.049l4.064-2.139h.89V43.8h-2.069V35.6Z" transform="translate(-467.331 -32.848)" fill="#fff"/>
      <path id="Path_104" data-name="Path 104" d="M484.67,38.341c0-2.955,1.27-5.581,4.472-5.581s4.472,2.593,4.472,5.548c0,3.1-1.426,5.577-4.485,5.577s-4.456-2.519-4.456-5.548Zm6.818-.029c0-1.88-.495-3.582-2.329-3.582s-2.358,1.777-2.358,3.582c0,1.954.495,3.582,2.329,3.582S491.488,40.25,491.488,38.312Z" transform="translate(-477.506 -32.76)" fill="#fff"/>
      <path id="Path_105" data-name="Path 105" d="M509.23,47.26H515.4V48.9H509.23Z" transform="translate(-491.942 -41.283)" fill="#fff"/>
      <path id="Path_106" data-name="Path 106" d="M528.2,35.606l-2.58,1.4h-.3V35.049l4.064-2.139h.89V43.8H528.2V35.6Z" transform="translate(-501.394 -32.848)" fill="#fff"/>
      <path id="Path_107" data-name="Path 107" d="M545.365,35.606l-2.58,1.4h-.3V35.049l4.064-2.139h.89V43.8h-2.069V35.6Z" transform="translate(-511.487 -32.848)" fill="#fff"/>
      <path id="Path_108" data-name="Path 108" d="M467.29,78.295a5.507,5.507,0,1,1,5.507,5.565A5.47,5.47,0,0,1,467.29,78.295Zm8.9,0a3.51,3.51,0,0,0-3.421-3.656,3.663,3.663,0,0,0,0,7.3A3.533,3.533,0,0,0,476.189,78.295Z" transform="translate(-467.29 -56.254)" fill="#fff"/>
      <path id="Path_109" data-name="Path 109" d="M502.9,87.542a4.186,4.186,0,0,1-2.638.758,3.934,3.934,0,0,1-4.007-4.019,3.99,3.99,0,0,1,4.007-4.052,3.627,3.627,0,0,1,2.622.874v1.719h-.437a2.446,2.446,0,0,0-2.1-.89,2.329,2.329,0,0,0,.058,4.646,2.735,2.735,0,0,0,2.04-.8h.449v1.764Z" transform="translate(-484.319 -60.663)" fill="#fff"/>
      <path id="Path_110" data-name="Path 110" d="M517.786,77.211h1.777v1.558h-1.777l-.016,3.6c0,.816.276.989.713.989h1.035v1.529H517.93c-1.179,0-2.1-.7-2.082-2.374V78.769H514.74V77.211h1.109l.017-2.461H517.8Z" transform="translate(-495.181 -57.442)" fill="#fff"/>
      <path id="Path_111" data-name="Path 111" d="M532.979,80.214a4.036,4.036,0,1,1,0,8.067,3.947,3.947,0,0,1-4.138-4.035,4,4,0,0,1,4.138-4.035Zm0,6.381a2.128,2.128,0,0,0,2.156-2.345,2.15,2.15,0,1,0-4.283,0A2.154,2.154,0,0,0,532.979,86.6Z" transform="translate(-503.469 -60.651)" fill="#fff"/>
      <path id="Path_112" data-name="Path 112" d="M554.213,72.41v4.007a3.182,3.182,0,0,1,2.156-.787,3.835,3.835,0,0,1,3.817,3.961,3.932,3.932,0,0,1-3.932,4.035,2.272,2.272,0,0,1-1.966-.96h-.173v.845H552.28V72.41h1.937Zm0,6.484v1.7c0,.845.828,1.34,1.805,1.34a2.2,2.2,0,0,0,2.242-2.329,2.115,2.115,0,0,0-2.2-2.271,1.746,1.746,0,0,0-1.851,1.558Z" transform="translate(-517.247 -56.066)" fill="#fff"/>
      <path id="Path_113" data-name="Path 113" d="M575.536,84.83a3.394,3.394,0,0,0,.074.42,2.072,2.072,0,0,0,2.214,1.443,6.032,6.032,0,0,0,2.679-.61h.453v1.529a5.87,5.87,0,0,1-3.087.684c-2.519,0-4.209-1.455-4.209-4.077a3.839,3.839,0,0,1,3.961-3.99c2.984,0,3.858,2.2,3.788,4.6h-5.87Zm.1-1.529h3.772a1.648,1.648,0,0,0-1.88-1.558A1.8,1.8,0,0,0,575.639,83.3Z" transform="translate(-529.814 -60.663)" fill="#fff"/>
      <path id="Path_114" data-name="Path 114" d="M595.95,80.679h1.822v1.5h.235a1.591,1.591,0,0,1,1.661-1.529h1.3v1.632h-1.529a1.4,1.4,0,0,0-1.529,1.237v4.835h-1.954V80.679Z" transform="translate(-542.916 -60.91)" fill="#fff"/>
    </g>
  </g>
</svg>
