<svg xmlns="http://www.w3.org/2000/svg" viewBox="0 0 394.3 93" style="enable-background:new 0 0 394.3 93" xml:space="preserve"><style>.logo_svg__st1{fill:#f0f1f2}</style><g id="logo_svg__Layer_1"><path d="M48.4 4.5h2.9V1.6c0-.9.7-1.6 1.6-1.6s1.7.7 1.7 1.6v2.9h2.9c.9 0 1.7.7 1.7 1.6s-.8 1.7-1.7 1.7h-2.9v2.9c0 .9-.8 1.7-1.7 1.7s-1.6-.8-1.6-1.7v-3h-2.9c-.9 0-1.6-.8-1.6-1.7.1-.8.8-1.5 1.6-1.5zM35 4.5h-2.2c-.9 0-1.6.7-1.6 1.6s.7 1.7 1.6 1.7H35v2.1c0 .9.7 1.7 1.6 1.7.9 0 1.7-.8 1.7-1.7V7.7h2.1c.9 0 1.7-.8 1.7-1.7s-.8-1.6-1.7-1.6h-2.1V2.3c0-.9-.8-1.6-1.7-1.6S35 1.4 35 2.3v2.2zm-17.8 0h1.4V3.1c0-.9.7-1.6 1.6-1.6s1.7.7 1.7 1.6v1.4h1.4c.9 0 1.7.7 1.7 1.6s-.8 1.7-1.7 1.7h-1.4v1.4c0 .9-.8 1.7-1.7 1.7-.9 0-1.6-.8-1.6-1.7V7.7h-1.4c-.9 0-1.6-.8-1.6-1.7 0-.8.7-1.5 1.6-1.5zm-15.6 0h.7v-.7c0-.9.7-1.6 1.6-1.6s1.7.7 1.7 1.6v.7h.6c.9 0 1.7.7 1.7 1.6S7 7.7 6.2 7.7h-.7v.6c0 .9-.8 1.7-1.7 1.7-.8 0-1.5-.8-1.5-1.6v-.7h-.7C.7 7.7 0 6.9 0 6.1s.7-1.6 1.6-1.6zm.7 20.2h-.7c-.9 0-1.6.7-1.6 1.6S.7 28 1.6 28h.7v.6c0 .9.7 1.7 1.6 1.7s1.7-.8 1.7-1.7V28h.6c.9 0 1.7-.8 1.7-1.7 0-.9-.8-1.6-1.7-1.6h-.7V24c0-.9-.8-1.6-1.7-1.6s-1.6.7-1.6 1.6l.1.7zm14.9 0h1.4v-1.4c0-.9.7-1.6 1.6-1.6s1.7.7 1.7 1.6v1.4h1.4c.9 0 1.7.7 1.7 1.6s-.8 1.7-1.7 1.7h-1.4v1.4c0 .9-.8 1.7-1.7 1.7-.9 0-1.6-.8-1.6-1.7V28h-1.4c-.9 0-1.6-.8-1.6-1.7s.7-1.6 1.6-1.6zm17.8 0h-2.2c-.9 0-1.6.7-1.6 1.6s.7 1.7 1.6 1.7H35v2.1c0 .9.7 1.7 1.6 1.7.9 0 1.7-.8 1.7-1.7V28h2.1c.9 0 1.7-.8 1.7-1.7 0-.9-.8-1.6-1.7-1.6h-2.1v-2.2c0-.9-.8-1.6-1.7-1.6s-1.6.7-1.6 1.6v2.2zm13.4 0h2.9v-2.9c0-.9.7-1.6 1.6-1.6.9 0 1.7.7 1.7 1.6v2.9h2.9c.9 0 1.7.7 1.7 1.6s-.8 1.7-1.7 1.7h-2.9v2.9c0 .9-.8 1.7-1.7 1.7s-1.6-.8-1.6-1.7V28h-2.9c-.9 0-1.6-.8-1.6-1.7.1-.9.8-1.6 1.6-1.6zm19.4 0h-3.7c-.9 0-1.6.7-1.6 1.6s.7 1.7 1.6 1.7h3.7v3.7c0 .9.7 1.7 1.6 1.7s1.7-.8 1.7-1.7V28h3.7c.9 0 1.7-.8 1.7-1.7 0-.9-.8-1.6-1.7-1.6H71V21c0-.9-.8-1.6-1.7-1.6-.9 0-1.6.7-1.6 1.6l.1 3.7zM1.6 44.8h.7v-.7c0-.9.7-1.6 1.6-1.6s1.7.7 1.7 1.6v.7h.6c.9 0 1.7.7 1.7 1.6S7 48 6.2 48h-.7v.6c0 .9-.8 1.7-1.7 1.7s-1.6-.8-1.6-1.7V48h-.6C.7 48 0 47.2 0 46.4s.7-1.6 1.6-1.6zm17 0h-1.4c-.9 0-1.6.7-1.6 1.6 0 .9.7 1.7 1.6 1.7h1.4v1.4c0 .9.7 1.7 1.6 1.7s1.7-.8 1.7-1.7V48h1.4c.9 0 1.7-.8 1.7-1.7s-.8-1.6-1.7-1.6h-1.4v-1.4c0-.9-.8-1.6-1.7-1.6-.9 0-1.6.7-1.6 1.6v1.5zm14.2 0H35v-2.2c0-.9.7-1.6 1.6-1.6.9 0 1.7.7 1.7 1.6v2.2h2.1c.9 0 1.7.7 1.7 1.6 0 .9-.8 1.7-1.7 1.7h-2.1v2.1c0 .9-.8 1.7-1.7 1.7s-1.6-.8-1.6-1.7V48h-2.2c-.9 0-1.6-.8-1.6-1.7 0-.8.7-1.5 1.6-1.5zm18.6 0h-2.9c-.9 0-1.6.7-1.6 1.6s.7 1.7 1.6 1.7h2.9V51c0 .9.7 1.7 1.6 1.7.9 0 1.7-.8 1.7-1.7v-3h2.9c.9 0 1.7-.8 1.7-1.7s-.8-1.6-1.7-1.6h-2.9v-2.9c0-.9-.8-1.6-1.7-1.6s-1.6.7-1.6 1.6v3zm12.7 0h3.7v-3.7c0-.9.7-1.6 1.6-1.6s1.7.7 1.7 1.6v3.7h3.7c.9 0 1.7.7 1.7 1.6s-.9 1.6-1.8 1.6H71v3.7c0 .9-.8 1.7-1.7 1.7-.9 0-1.6-.8-1.6-1.7V48H64c-.9 0-1.6-.8-1.6-1.7s.8-1.5 1.7-1.5zM2.3 65h-.7c-.9 0-1.6.7-1.6 1.6s.7 1.7 1.6 1.7h.7v.6c0 .9.7 1.7 1.6 1.7s1.7-.8 1.7-1.7v-.6h.6c.9 0 1.7-.8 1.7-1.7-.1-.9-.9-1.6-1.7-1.6h-.7v-.7c0-.9-.8-1.6-1.7-1.6s-1.6.7-1.6 1.6v.7h.1zm14.9 0h1.4v-1.4c0-.9.7-1.6 1.6-1.6s1.7.7 1.7 1.6V65h1.4c.9 0 1.7.7 1.7 1.6s-.8 1.7-1.7 1.7h-1.4v1.4c0 .9-.8 1.7-1.7 1.7-.9 0-1.6-.8-1.6-1.7v-1.4h-1.4c-.9 0-1.6-.8-1.6-1.7 0-.9.7-1.6 1.6-1.6zM35 65h-2.2c-.9 0-1.6.7-1.6 1.6s.7 1.7 1.6 1.7H35v2.1c0 .9.7 1.7 1.6 1.7.9 0 1.7-.8 1.7-1.7v-2.1h2.1c.9 0 1.7-.8 1.7-1.7 0-.9-.8-1.6-1.7-1.6h-2.1v-2.2c0-.9-.8-1.6-1.7-1.6s-1.6.7-1.6 1.6V65zm13.4 0h2.9v-2.9c0-.9.7-1.6 1.6-1.6.9 0 1.7.7 1.7 1.6V65h2.9c.9 0 1.7.7 1.7 1.6s-.8 1.7-1.7 1.7h-2.9v2.9c0 .9-.8 1.7-1.7 1.7s-1.6-.8-1.6-1.7v-2.9h-2.9c-.9 0-1.6-.8-1.6-1.7.1-.9.8-1.6 1.6-1.6zm19.4 0h-3.7c-.9 0-1.6.7-1.6 1.6s.7 1.7 1.6 1.7h3.7V72c0 .9.7 1.7 1.6 1.7s1.7-.8 1.7-1.7v-3.7h3.7c.9 0 1.7-.8 1.7-1.7 0-.9-.8-1.6-1.7-1.6H71v-3.7c0-.9-.8-1.6-1.7-1.6-.9 0-1.6.7-1.6 1.6l.1 3.7zM1.6 85.2h.7v-.7c0-.9.7-1.6 1.6-1.6s1.7.7 1.7 1.6v.7h.6c.9 0 1.7.7 1.7 1.6s-.8 1.7-1.7 1.7h-.7v.6c0 .9-.8 1.7-1.7 1.7s-1.6-.8-1.6-1.7v-.6h-.6c-.9 0-1.6-.8-1.6-1.7s.7-1.6 1.6-1.6zm17 0h-1.4c-.9 0-1.6.7-1.6 1.6s.7 1.7 1.6 1.7h1.4v1.4c0 .9.7 1.7 1.6 1.7s1.7-.8 1.7-1.7v-1.4h1.4c.9 0 1.7-.8 1.7-1.7 0-.9-.8-1.6-1.7-1.6h-1.4v-1.4c0-.9-.8-1.6-1.7-1.6-.9 0-1.6.7-1.6 1.6v1.4zm14.2 0H35V83c0-.9.7-1.6 1.6-1.6.9 0 1.7.7 1.7 1.6v2.2h2.1c.9 0 1.7.7 1.7 1.6s-.8 1.7-1.7 1.7h-2.1v2.1c0 .9-.8 1.7-1.7 1.7s-1.6-.8-1.6-1.7v-2.1h-2.2c-.9 0-1.6-.8-1.6-1.7 0-.9.7-1.6 1.6-1.6zm18.6 0h-2.9c-.9 0-1.6.7-1.6 1.6s.7 1.7 1.6 1.7h2.9v2.9c0 .9.7 1.7 1.6 1.7.9 0 1.7-.8 1.7-1.7v-2.9h2.9c.9 0 1.7-.8 1.7-1.7 0-.9-.8-1.6-1.7-1.6h-2.9v-2.9c0-.9-.8-1.6-1.7-1.6s-1.6.7-1.6 1.6v2.9zm61-59.9V7.8h-7.3V4.5h18.6v3.3h-7.3v17.4l-4 .1zm19.6-1.4h.4v1.3h3.6V16c0-4-2.8-6-6.7-6-2.5 0-4.6.7-6.3 1.9v2.7h.7c1.6-1 3.2-1.5 5.1-1.5 1.7 0 2.9.8 3.3 2l-.4.3c-1 .1-2.7.3-3.7.5-3.9.6-6 2.2-6 5 0 2.7 2.4 4.7 6 4.7 1.8 0 3.1-.7 4-1.7zm.2-5.5v2.1c-.1 1.3-2.1 2.3-4.1 2.2-1.7 0-2.5-.7-2.5-1.8 0-1.3 1-1.7 2.6-2.1l4-.4zm11.1-14.5v21.4h-3.7V3.9h3.7zm7.8 21.3V3.9h-3.7v21.4l3.7-.1zM155 8V4h3.7v4H155zm0 17.3V10.5h3.7v14.8H155zm15-11.7c2.1 0 3.1 1.3 3.1 3.2l-.1 8.6h3.9V16c0-3.7-1.7-5.8-5.6-5.8-2.4 0-4 1.3-4.5 3.2h-.5v-2.9h-3.7v14.8h3.9v-8.8c0-1.7 1.8-2.9 3.5-2.9zm21 3.1c0-1.9-.9-3.2-3.1-3.2-1.7 0-3.5 1.3-3.6 3v8.8h-3.9V10.5h3.7v2.9h.5c.5-1.9 2.1-3.2 4.5-3.2 3.9 0 5.6 2.1 5.6 5.8v9.3h-3.9l.2-8.6zM113.8 36h-7v20.8h7c5.8 0 10.4-4.6 10.4-10.4 0-5.8-4.6-10.4-10.4-10.4zm-3 17.5V39.4h3.1c3.4 0 6.3 3 6.3 7s-3 7.1-6.3 7.1h-3.1zm16.2-14v-3.9h3.7v3.9H127zm0 17.4V42h3.7v14.8H127v.1zm17.9-1.6h.3l-.1.7c0 3.2-1.6 3.9-4.2 3.9-1.9 0-4-.7-5.4-1.6h-.8v3.2c1.6 1 4.1 1.6 6.2 1.6 4.7 0 8-2.1 8-6.8V42h-3.5v1.8h-.2c-.5-1.3-1.9-2.2-4-2.2-4.3 0-7.6 3.4-7.6 7.8 0 4.3 3.1 7.7 7.1 7.7 1.7 0 3.3-.5 4.2-1.8zm.3-8v3.5c-.1 1.6-1.7 3-3.7 3-2.2 0-4.1-1.7-4.1-4.4 0-2.8 2-4.5 4.2-4.5 1.7 0 3.5.9 3.6 2.4zm7.5-7.8v-3.9h3.7v3.9h-3.7zm0 17.4V42h3.7v14.8h-3.7v.1zM168.3 42h-3.5l-.1-4.8H161V42h-2.1v3h2.1v7.3c0 3.2 1.7 4.6 4 4.6h3.1V54h-2c-.8 0-1.3-.3-1.3-1.9V45h3.5v-3zm12.3 13.5h-.2c-.9 1-2.2 1.7-4 1.7-3.6 0-6-2-6-4.7 0-2.8 2.1-4.5 6-5 1-.2 2.7-.4 3.7-.5l.4-.3c-.4-1.2-1.6-2-3.3-2-2 0-3.6.5-5.1 1.5h-.7v-2.7c1.7-1.2 3.8-1.9 6.3-1.9 3.9 0 6.7 2 6.7 6v9.2h-3.5v-1.3h-.3zm0-3.4V50l-4 .5c-1.6.3-2.6.8-2.6 2.1 0 1.1.8 1.8 2.5 1.8 2-.1 4.1-1.1 4.1-2.3zm11.2 4.7V35.4h-3.7v21.4h3.7zm-86 25.5h.8c2.3 1.8 5 2.8 7.3 2.8 2.5 0 4-1 4-2.4 0-1.7-1.6-2.4-4.7-3-4.2-.8-7.5-2.1-7.5-6.3 0-3.9 3.6-6.3 8.2-6.3 3.3 0 5.8 1.1 7.2 2.3V73h-.7c-1.7-1.3-3.9-2.3-6.7-2.3-2.4 0-4 1-4 2.5 0 1.6 1.6 2.2 5 2.9 4.2.9 7.1 2.5 7.1 6.4 0 3.6-3.3 6.2-8.1 6.2-3.6 0-6.2-1-8-2.8v-3.8h.1v.2zm25.9 3c-2 0-3.1-1.2-3.1-3.1v-8.7h-3.9v9.3c0 3.8 1.7 5.8 5.7 5.8 2.4 0 4-1.3 4.4-3.2h.6v2.9h3.7V73.5h-3.9v8.6c0 1.8-1.7 3.2-3.5 3.2zm21.4-5.7c0-1.8-1.3-2.9-3.1-2.9-1.7 0-3.4 1.3-3.5 3v8.8h-3.9V73.6h3.7v2.9h.5c.3-1.7 1.9-3.2 4.1-3.2 2.5 0 4.3 1.1 5.1 3h.3c.6-1.9 2.8-3 4.9-3 3.5 0 5.9 1.9 5.9 5.6v9.5h-3.9v-8.8c0-1.8-1.3-2.9-3.1-2.9-1.9 0-3.4 1.3-3.5 3v8.8h-3.9v-8.9h.4zm25.2-2.9c1.7 0 3.1 1.1 3.1 2.9h-.2v8.9h3.9v-8.8c.1-1.7 1.6-3 3.5-3 1.7 0 3.1 1.1 3.1 2.9v8.8h3.9V79c0-3.7-2.4-5.6-5.9-5.6-2.1 0-4.3 1.1-4.9 3h-.3c-.8-1.9-2.6-3-5.1-3-2.2 0-3.8 1.5-4.1 3.2h-.5v-2.9h-3.7v14.8h3.9v-8.8c-.1-1.8 1.5-3 3.3-3zm21-5.6v-3.9h3.7v3.9h-3.7zm0 17.3V73.6h3.7v14.8h-3.7zm15.4-14.8h-3.5l-.1-4.8h-3.7v4.7h-2.1v3h2.1v7.3c0 3.2 1.7 4.6 4 4.6h3.1v-2.9h-2c-.8 0-1.3-.3-1.3-1.9v-6.9h3.5v-3.1zm25.7 11.7 8.1-8.1c1.3-1.3 2.3-2.4 2.3-3.7 0-1.7-1.5-2.6-3.5-2.6-2.2 0-4.3 1-5.8 2.7h-.7V70c1.7-1.7 4-2.8 7.1-2.8 4.3 0 7.2 2.8 7.2 6.2 0 1.7-.8 3.3-2.5 5.1l-6.2 6.5h8.5v3.5h-14.6l.1-3.2zm25.5-18.1c-6.2 0-8.6 5.1-8.6 10.8 0 5.8 2.8 10.7 8.5 10.7 5.9 0 8.7-4.8 8.7-10.8 0-5.7-2.4-10.7-8.6-10.7zm0 3.8c3.5 0 4.5 3.3 4.5 6.9 0 3.8-.9 6.9-4.6 6.9-3.5 0-4.5-3.2-4.5-6.9 0-3.4.9-6.9 4.6-6.9zm10.8 14.3 8.1-8.1c1.3-1.3 2.3-2.4 2.3-3.7 0-1.7-1.5-2.6-3.5-2.6-2.2 0-4.3 1-5.8 2.7h-.7V70c1.7-1.7 4-2.8 7.1-2.8 4.3 0 7.2 2.8 7.2 6.2 0 1.7-.8 3.3-2.5 5.1l-6.2 6.5h8.5v3.5h-14.6v-3.2h.1z" style="fill-rule:evenodd;clip-rule:evenodd;fill:#f0f1f2"></path><path class="logo_svg__st1" d="M298.9 75.8c1.8-1.3 3.8-2.8 5.7-4.6h-9.9v-3.5h14.6v3.8c-2.1 2-3.6 3.2-5.3 4.5 3.1.6 5.5 2.6 5.5 6 0 3.9-3.1 6.9-7.7 6.9-3.4 0-6-1.1-7.5-2.7v-3.8h.6c1.5 1.5 4.1 2.7 6.7 2.7 2.4 0 3.9-1.3 3.9-3.2 0-1.9-1.5-3-5-3h-1.6v-3.1zM240.6 50.2h.8c2.2 1.8 4.9 2.9 7.3 2.9 2.5 0 4-1 4-2.4 0-1.7-1.6-2.3-4.6-3-4.1-.8-7.4-2.1-7.4-6.3 0-3.9 3.6-6.3 8.2-6.3 3.3 0 5.8 1.1 7.1 2.2V41h-.7c-1.7-1.2-3.9-2.2-6.7-2.2-2.3 0-4 1-4 2.5 0 1.6 1.6 2.2 5 2.9 4.2.8 7 2.5 7 6.4 0 3.6-3.3 6.2-8.1 6.2-3.5 0-6.1-1-8-2.7v-3.9h.1zM262.2 50c0 .3.1.6.1.8.4 1.8 2.1 2.8 4.3 2.8 1.7 0 3.6-.4 5.2-1.2h.9v2.9c-1.4.9-3.4 1.3-5.9 1.3-4.8 0-8.1-2.8-8.1-7.8 0-4.3 3-7.7 7.6-7.7 5.7 0 7.4 4.2 7.3 8.8h-11.4v.1zm.2-2.9h7.3c-.3-1.7-1.1-3-3.6-3-2.3 0-3.3 1.3-3.7 3zM276.1 41.5h3.5v1.8h.2c.6-1.4 2.2-2.2 4.1-2.2 4.4 0 7.4 3.3 7.4 7.6 0 4.4-2.9 7.8-7.3 7.8-1.9 0-3.1-.7-3.9-1.8h-.3v7.8h-3.7v-21zm3.7 6v3c0 1.6 1.6 2.7 3.8 2.7 2 0 4-1.7 4-4.5 0-2.7-1.9-4.3-4.3-4.3-2 0-3.5 1.5-3.5 3.1zM298.5 41.5h3.4v3h-3.4v6.9c0 1.6.5 1.9 1.4 1.9h2v2.9h-3.1c-2.3 0-4-1.3-4-4.6v-7.2h-2.1v-3h2.1v-4.7h3.7v4.8zM307.4 50c0 .3.1.6.1.8.4 1.8 2.1 2.8 4.3 2.8 1.7 0 3.6-.4 5.2-1.2h.9v2.9c-1.4.9-3.4 1.3-5.9 1.3-4.8 0-8.1-2.8-8.1-7.8 0-4.3 3-7.7 7.6-7.7 5.7 0 7.4 4.2 7.3 8.8h-11.4v.1zm.2-2.9h7.3c-.3-1.7-1.1-3-3.6-3-2.2 0-3.3 1.3-3.7 3zM331.8 47.5c0-1.8-1.3-2.9-3-2.9-1.8 0-3.4 1.3-3.4 3v8.7h-3.8V41.5h3.7v2.9h.5c.3-1.7 1.9-3.2 4.1-3.2 2.5 0 4.3 1.1 5.1 3h.3c.6-1.8 2.9-3 4.9-3 3.4 0 5.9 1.9 5.9 5.6v9.5h-3.8v-8.8c0-1.8-1.3-2.9-3.1-2.9-1.9 0-3.4 1.3-3.4 3v8.7H332v-8.8h-.2zM353.2 35v7.7c1-1 2.7-1.5 4.1-1.5 4.1 0 7.3 3.3 7.3 7.6 0 4.4-3.2 7.8-7.6 7.8-1.6 0-3.1-.7-3.8-1.8h-.2v1.6h-3.5V35h3.7zm0 12.4v3.3c0 1.6 1.6 2.6 3.5 2.6 2.3 0 4.3-1.7 4.3-4.5 0-2.7-1.9-4.4-4.2-4.4-2.1 0-3.6 1.5-3.6 3zM370 50c0 .3.1.6.1.8.4 1.8 2.1 2.8 4.3 2.8 1.7 0 3.6-.4 5.2-1.2h.9v2.9c-1.4.9-3.4 1.3-5.9 1.3-4.8 0-8.1-2.8-8.1-7.8 0-4.3 3-7.7 7.6-7.7 5.7 0 7.4 4.2 7.3 8.8H370v.1zm.2-2.9h7.3c-.3-1.7-1.1-3-3.6-3-2.3 0-3.3 1.3-3.7 3zM384 41.5h3.5v2.9h.4c.3-1.9 1.4-2.9 3.2-2.9h2.5v3.1h-2.9c-1.5 0-2.7.8-2.9 2.4v9.3H384V41.5z"></path></g><g id="logo_svg__Layer_2"><path class="logo_svg__st1" d="M240.3 15c0-5.7 2.4-10.7 8.6-10.7 6.2 0 8.6 5 8.6 10.7 0 6-2.7 10.7-8.6 10.7s-8.6-4.9-8.6-10.7zm8.5 6.6c3.6 0 4.5-3.1 4.5-6.7s-1-6.7-4.5-6.7-4.5 3.4-4.5 6.7c.1 3.7 1 6.7 4.5 6.7zM260 19.7h.7c1.3 1.2 3.8 2.2 6.2 2.2 2.7 0 4.1-1.6 4.1-3.3 0-1.8-1.6-3.2-4.5-3.2-1.9 0-3.1.3-4.8.8h-.9V4.6h13.6v3.6h-9.9v4.4c.8-.4 1.7-.6 2.9-.6 4.3 0 7.6 2.6 7.6 6.7 0 4.3-3.4 7-7.9 7-2.7 0-5.6-1-7.1-2.3v-3.7z"></path></g></svg>